<?xml version="1.0" encoding="utf-8"?>
<!-- Generator: Adobe Illustrator 25.4.1, SVG Export Plug-In . SVG Version: 6.00 Build 0)  -->
<svg version="1.1" id="Layer_1" xmlns="http://www.w3.org/2000/svg" xmlns:xlink="http://www.w3.org/1999/xlink" x="0px" y="0px"
	 viewBox="0 0 179.67 49" style="enable-background:new 0 0 179.67 49;" xml:space="preserve">
<style type="text/css">
	.st0{fill:#009CDD;}
	.st1{fill:#FFFFFF;}
</style>
<g>
	<polygon class="st0" points="49.86,7.3 54.14,7.3 54.14,22.83 61.83,22.83 61.83,26.18 49.86,26.18 	"/>
	<path class="st0" d="M63.95,22.36c0-3.22,2.96-4.44,7.18-4.44h1.56v-0.55c0-1.64-0.5-2.54-2.24-2.54c-1.51,0-2.19,0.77-2.35,1.96
		h-3.62c0.24-3.28,2.83-4.73,6.21-4.73c3.38,0,5.79,1.38,5.79,5.13v9.01h-3.72v-1.66c-0.79,1.11-2.01,1.95-4.18,1.95
		C66.06,26.48,63.95,25.26,63.95,22.36 M72.69,21.35v-1.16h-1.48c-2.22,0-3.52,0.48-3.52,1.95c0,1.01,0.61,1.67,2.01,1.67
		C71.4,23.81,72.69,22.88,72.69,21.35"/>
	<path class="st0" d="M85.48,7.3h6.76c4.46,0,7.29,1.82,7.29,5.73v0.11c0,2.85-1.67,4.36-3.88,5.02l4.99,8.03H96.1l-4.52-7.29h-1.85
		v7.29h-4.25V7.3z M92.13,15.99c2.14,0,3.22-0.9,3.22-2.72v-0.11c0-1.93-1.16-2.59-3.22-2.59h-2.4v5.42H92.13z"/>
	<path class="st0" d="M101.96,19.45v-0.21c0-4.36,3.09-7.19,7.1-7.19c3.57,0,6.73,2.09,6.73,7.03v1.06h-9.95
		c0.11,2.3,1.35,3.62,3.43,3.62c1.77,0,2.64-0.76,2.88-1.93h3.62c-0.45,2.98-2.83,4.65-6.6,4.65
		C105,26.48,101.96,23.86,101.96,19.45 M112.07,17.78c-0.13-2.09-1.19-3.09-3.01-3.09c-1.72,0-2.88,1.13-3.17,3.09H112.07z
		 M108.96,6.29h4.02l-2.75,4.2h-2.78L108.96,6.29z"/>
	<path class="st0" d="M118.11,26.48h3.8c0.24,1.21,1.11,2.01,3.06,2.01c2.32,0,3.49-1.21,3.49-3.38v-2.08
		c-0.77,1.35-2.4,2.56-4.44,2.56c-3.35,0-6.02-2.51-6.02-6.6v-0.19c0-3.96,2.64-6.74,6.07-6.74c2.25,0,3.59,0.98,4.38,2.38v-2.06
		h3.8V25.1c-0.03,4.1-2.75,6.18-7.29,6.18C120.52,31.28,118.49,29.33,118.11,26.48 M128.58,18.92v-0.18c0-2.35-1.24-3.78-3.33-3.78
		c-2.14,0-3.33,1.53-3.33,3.8v0.21c0,2.3,1.35,3.72,3.25,3.72C127.18,22.7,128.58,21.27,128.58,18.92"/>
	<path class="st0" d="M135.75,8.41c0-1.19,0.95-2.09,2.17-2.09c1.24,0,2.19,0.9,2.19,2.09c0,1.19-0.95,2.09-2.19,2.09
		C136.69,10.49,135.75,9.6,135.75,8.41 M136.04,12.37h3.8v13.82h-3.8V12.37z"/>
	<path class="st0" d="M142.74,19.42v-0.21c0-4.33,3.14-7.16,7.29-7.16c4.15,0,7.26,2.77,7.26,7.08v0.21c0,4.36-3.14,7.13-7.29,7.13
		C145.88,26.48,142.74,23.73,142.74,19.42 M153.41,19.37v-0.18c0-2.64-1.24-4.23-3.38-4.23c-2.11,0-3.38,1.53-3.38,4.17v0.21
		c0,2.64,1.21,4.22,3.38,4.22C152.17,23.57,153.41,21.99,153.41,19.37"/>
	<path class="st0" d="M160.21,12.37h3.83v2.2c0.69-1.38,2.19-2.51,4.49-2.51c2.72,0,4.65,1.64,4.65,5.34v8.8h-3.83v-8.24
		c0-1.88-0.74-2.78-2.43-2.78c-1.64,0-2.88,1.01-2.88,3.04v7.98h-3.83V12.37z"/>
	<path class="st0" d="M52.77,33.84h1.38l2.93,8.65h-1.04L55.18,40h-3.57l-0.83,2.49h-0.99L52.77,33.84z M51.91,39.16h3l-1.5-4.45
		L51.91,39.16z"/>
	<path class="st0" d="M57.84,40.17v-4h1v3.96c0,1.11,0.47,1.61,1.46,1.61c0.89,0,1.74-0.59,1.74-1.73v-3.83h1v6.33h-1v-1
		c-0.29,0.59-0.99,1.11-2.01,1.11C58.78,42.6,57.84,41.91,57.84,40.17"/>
	<polygon class="st0" points="63.99,36.16 65.08,36.16 66.95,41.48 68.81,36.16 69.85,36.16 67.57,42.49 66.29,42.49 	"/>
	<path class="st0" d="M70.14,39.39v-0.1c0-1.91,1.22-3.24,2.96-3.24c1.46,0,2.84,0.88,2.84,3.14v0.33h-4.76
		c0.05,1.44,0.74,2.24,2.03,2.24c0.98,0,1.55-0.36,1.68-1.1h1.01c-0.22,1.27-1.27,1.94-2.7,1.94C71.41,42.6,70.14,41.34,70.14,39.39
		 M74.92,38.72c-0.1-1.31-0.77-1.83-1.81-1.83c-1.03,0-1.72,0.7-1.89,1.83H74.92z"/>
	<path class="st0" d="M77.18,36.16h1v1.14c0.4-0.71,0.94-1.21,2.08-1.24V37c-1.27,0.06-2.08,0.46-2.08,2.02v3.47h-1V36.16z"/>
	<path class="st0" d="M80.84,42.85h1.03c0.14,0.73,0.75,1.1,1.83,1.1c1.25,0,2.03-0.59,2.03-1.95v-0.92
		c-0.36,0.62-1.22,1.2-2.14,1.2c-1.66,0-2.88-1.26-2.88-3V39.2c0-1.72,1.21-3.14,2.95-3.14c1.05,0,1.71,0.51,2.07,1.12v-1.02h1v5.9
		c-0.01,1.84-1.26,2.73-3.02,2.73C81.83,44.8,81.01,43.92,80.84,42.85 M85.76,39.21v-0.09c0-1.41-0.77-2.24-2.01-2.24
		c-1.26,0-2.01,0.93-2.01,2.26v0.1c0,1.38,0.88,2.2,1.95,2.2C84.86,41.45,85.76,40.63,85.76,39.21"/>
	<path class="st0" d="M88.34,36.16h1v1c0.29-0.59,0.99-1.11,2.03-1.11c1.31,0,2.23,0.71,2.23,2.55v3.88H92.6v-3.96
		c0-1.11-0.47-1.61-1.49-1.61c-0.93,0-1.77,0.59-1.77,1.73v3.84h-1V36.16z"/>
	<path class="st0" d="M94.78,39.39v-0.1c0-1.91,1.22-3.24,2.96-3.24c1.46,0,2.84,0.88,2.84,3.14v0.33h-4.76
		c0.05,1.44,0.74,2.24,2.03,2.24c0.98,0,1.55-0.36,1.68-1.1h1c-0.22,1.27-1.27,1.94-2.7,1.94C96.05,42.6,94.78,41.34,94.78,39.39
		 M99.56,38.72c-0.1-1.31-0.77-1.83-1.81-1.83c-1.03,0-1.72,0.7-1.89,1.83H99.56z"/>
	<rect x="101.79" y="38.69" class="st0" width="2.59" height="0.94"/>
	<path class="st0" d="M106.1,33.84h2.6c1.66,0,3.02,0.68,3.02,2.41v0.05c0,1.43-0.96,2.13-2.14,2.36l2.65,3.83h-1.17l-2.58-3.76
		h-1.33v3.76h-1.05V33.84z M108.77,37.9c1.23,0,1.9-0.53,1.9-1.6v-0.05c0-1.17-0.73-1.56-1.9-1.56h-1.62v3.21H108.77z"/>
	<path class="st0" d="M113.26,33.14h1v4.03c0.29-0.59,0.99-1.11,2.03-1.11c1.31,0,2.23,0.71,2.23,2.55v3.88h-1v-3.96
		c0-1.11-0.47-1.61-1.49-1.61c-0.93,0-1.76,0.59-1.76,1.73v3.83h-1V33.14z"/>
	<path class="st0" d="M119.68,39.38v-0.1c0-1.9,1.32-3.23,3.11-3.23c1.79,0,3.11,1.32,3.11,3.22v0.1c0,1.91-1.32,3.23-3.12,3.23
		C120.97,42.6,119.68,41.23,119.68,39.38 M124.86,39.38V39.3c0-1.46-0.81-2.41-2.07-2.41c-1.27,0-2.07,0.94-2.07,2.4v0.1
		c0,1.44,0.79,2.38,2.07,2.38C124.06,41.77,124.86,40.81,124.86,39.38 M122.34,33.33h0.91l1.29,1.74h-0.74l-1.03-0.9l-1.03,0.9
		h-0.71L122.34,33.33z"/>
	<path class="st0" d="M127.13,36.16h1v1c0.29-0.59,0.99-1.11,2.03-1.11c1.31,0,2.23,0.71,2.23,2.55v3.88h-1.01v-3.96
		c0-1.11-0.47-1.61-1.49-1.61c-0.93,0-1.77,0.59-1.77,1.73v3.84h-1V36.16z"/>
	<path class="st0" d="M133.57,39.39v-0.1c0-1.91,1.22-3.24,2.96-3.24c1.46,0,2.84,0.88,2.84,3.14v0.33h-4.77
		c0.05,1.44,0.74,2.24,2.03,2.24c0.98,0,1.55-0.36,1.68-1.1h1c-0.22,1.27-1.27,1.94-2.7,1.94C134.84,42.6,133.57,41.34,133.57,39.39
		 M138.35,38.72c-0.1-1.31-0.77-1.83-1.81-1.83c-1.03,0-1.72,0.7-1.89,1.83H138.35z"/>
	<rect x="140.58" y="38.69" class="st0" width="2.59" height="0.94"/>
	<path class="st0" d="M146.93,33.84h1.38l2.93,8.65h-1.04L149.35,40h-3.57l-0.83,2.49h-0.99L146.93,33.84z M146.07,39.16h3
		l-1.5-4.45L146.07,39.16z"/>
	<rect x="152.3" y="33.14" class="st0" width="1.02" height="9.35"/>
	<path class="st0" d="M154.93,36.16h1v1.06c0.37-0.62,1.22-1.17,2.14-1.17c1.66,0,2.88,1.21,2.88,3.18v0.1
		c0,1.94-1.14,3.27-2.88,3.27c-1.04,0-1.78-0.52-2.14-1.15v3.24h-1V36.16z M159.91,39.38v-0.1c0-1.6-0.88-2.39-1.95-2.39
		c-1.17,0-2.07,0.77-2.07,2.39v0.1c0,1.62,0.85,2.38,2.08,2.38C159.23,41.77,159.91,40.92,159.91,39.38"/>
	<path class="st0" d="M161.79,39.39v-0.1c0-1.91,1.22-3.24,2.96-3.24c1.46,0,2.84,0.88,2.84,3.14v0.33h-4.76
		c0.05,1.44,0.74,2.24,2.03,2.24c0.98,0,1.55-0.36,1.68-1.1h1c-0.22,1.27-1.27,1.94-2.7,1.94C163.06,42.6,161.79,41.34,161.79,39.39
		 M166.57,38.72c-0.1-1.31-0.77-1.83-1.81-1.83c-1.03,0-1.72,0.7-1.89,1.83H166.57z"/>
	<path class="st0" d="M168.37,40.54h0.98c0.07,0.75,0.47,1.22,1.49,1.22c0.96,0,1.38-0.33,1.38-1c0-0.67-0.5-0.88-1.47-1.07
		c-1.65-0.3-2.2-0.76-2.2-1.86c0-1.17,1.15-1.78,2.14-1.78c1.14,0,2.12,0.46,2.29,1.83H172c-0.15-0.69-0.53-0.99-1.33-0.99
		c-0.73,0-1.2,0.36-1.2,0.91c0,0.57,0.31,0.8,1.48,1c1.3,0.24,2.22,0.53,2.22,1.88c0,1.15-0.79,1.92-2.32,1.92
		C169.34,42.6,168.43,41.84,168.37,40.54"/>
	<path class="st0" d="M41.38,24.87c0,9.72-7.88,17.61-17.61,17.61c-9.73,0-17.61-7.88-17.61-17.61S14.04,7.26,23.77,7.26
		C33.5,7.26,41.38,15.15,41.38,24.87"/>
	<polygon class="st1" points="26.49,14.68 24.81,14.68 20.83,21.5 22.51,22.48 25.65,17.1 32.02,28.03 33.7,27.05 	"/>
	<rect x="16.96" y="30.03" class="st1" width="17.76" height="1.94"/>
	<path class="st1" d="M26.23,22.96c-1,1.19-2.5,1.95-4.18,1.95c-1.56,0-2.98-0.66-3.97-1.71h-0.02h-1.71l0,0l-0.07,0.12l-4.48,7.68
		l1.68,0.98l3.26-5.58h-0.01l0.69-1.19c1.27,1.03,2.88,1.64,4.64,1.64c2.25,0,4.26-1,5.61-2.58L26.23,22.96z"/>
</g>
</svg>
