<?xml version="1.0" encoding="utf-8"?>
<!-- Generator: Adobe Illustrator 25.4.1, SVG Export Plug-In . SVG Version: 6.00 Build 0)  -->
<svg version="1.1" xmlns="http://www.w3.org/2000/svg" xmlns:xlink="http://www.w3.org/1999/xlink" x="0px" y="0px"
	 viewBox="0 0 384.02 132.85" style="enable-background:new 0 0 384.02 132.85;" xml:space="preserve">
<style type="text/css">
	.st0{fill:none;stroke:url(#SVGID_1_);stroke-width:1.7348;stroke-miterlimit:10;}
	.st1{fill:url(#SVGID_00000163052359814854910800000014724275900158157992_);}
	.st2{fill:#030505;}
	.st3{fill:#FFFFFF;}
	.st4{fill:url(#SVGID_00000010305253549994896610000016072519360071310755_);}
	.st5{fill:url(#SVGID_00000039118416194105103270000016954045526244803749_);}
</style>
<g id="Calque_1">
</g>
<g id="Calque_2">
	<linearGradient id="SVGID_1_" gradientUnits="userSpaceOnUse" x1="10.3626" y1="46.6352" x2="194.9979" y2="46.6352">
		<stop  offset="0" style="stop-color:#50975A"/>
		<stop  offset="1" style="stop-color:#7CBA6F"/>
	</linearGradient>
	<polyline class="st0" points="70.43,15.95 194.13,15.95 194.13,77.32 11.23,77.32 11.23,15.95 53.78,15.95 	"/>
	
		<linearGradient id="SVGID_00000093171002457991713050000005467007650089337013_" gradientUnits="userSpaceOnUse" x1="194.9976" y1="56.9862" x2="378.2835" y2="56.9862">
		<stop  offset="0" style="stop-color:#54985B"/>
		<stop  offset="1" style="stop-color:#8DBF71"/>
	</linearGradient>
	
		<rect x="195" y="30.29" style="fill:url(#SVGID_00000093171002457991713050000005467007650089337013_);" width="183.29" height="53.38"/>
	<path class="st2" d="M42.44,19.32l-4.82-1.06c0,0-5.72,36.45-18.18,67.15c5.27-3.34,31.21-20.04,52.67-11.43
		c-1.03-11.18-2.7-29.8,1.8-36.22c-3.08-4.24-3.08-4.24-3.08-4.24s-6.68,3.34-4.5,33.78c-4.24-0.77-11.3-4.24-36.99,6.55
		C32.81,63.45,38.72,43.54,42.44,19.32z"/>
	<path class="st2" d="M97.42,57.73c0,0,2.38,0,5.97,0c3.6,0,3.92-4.17,3.92-4.17s0.06-1.73,0-7.58c-0.13-5.14-4.37-4.75-4.37-4.75
		H78.28l-0.26,26.85h6.17V57.79h5.97l11.05,10.15h8.8L97.42,57.73z M84.19,53.56v-7.9h15.74c0,0,1.35,0,1.28,1.61s0,4.43,0,4.43
		s0.39,1.73-1.99,1.86C96.84,53.68,84.19,53.56,84.19,53.56z"/>
	<path class="st2" d="M136.86,54.29c-0.35,0-0.16-0.26-0.16-0.26s3.95-0.8,4.05-3.89c0.03-4.98,0.03-4.98,0.03-4.98
		s-0.29-4.11-4.72-4.08c-4.43,0.03-24.53,0-24.53,0v0.29v26.69h23.7c0,0,5.68,0.19,5.78-5.3v-3.98
		C141,58.79,140.77,54.55,136.86,54.29z M133.05,45.33c0,0,1.97-0.1,1.97,2.31c0,0.48,0,1.64,0,1.64s0.53,2.75-1.73,2.7
		c-2.26-0.05-15.56,0-15.56,0l-0.1-6.65H133.05z M133.36,63.01c-2.26-0.05-15.56,0-15.56,0l-0.1-6.65h15.41c0,0,1.97-0.1,1.97,2.31
		c0,0.48,0,1.64,0,1.64S135.63,63.06,133.36,63.01z"/>
	<path class="st2" d="M162.71,41.26h-6.01l-15.35,26.75l6.13,0.16l3.37-6.26h17.05l3.28,6.13h6.94L162.71,41.26z M153.11,57.38
		l6.36-11.37l6.1,11.43L153.11,57.38z"/>
	<polygon class="st3" points="192.16,52.53 195.14,51.74 203.33,59.4 203.33,41.16 208.57,41.16 208.57,67.94 204.52,67.94 
		194.66,58.92 	"/>
	<polygon class="st2" points="179.05,68.12 179.05,41.24 183.1,41.24 195.14,51.74 195.14,59.4 184.3,49.28 184.3,68.17 	"/>
	<path class="st3" d="M231.86,41.19h-6.01l-15.35,26.75l6.13,0.16l3.37-6.26h17.05l3.28,6.13h6.94L231.86,41.19z M222.26,57.31
		l6.36-11.37l6.1,11.43L222.26,57.31z"/>
	<rect x="242.19" y="41.1" class="st3" width="24.92" height="5.01"/>
	<rect x="251.44" y="45.72" class="st3" width="6.42" height="22.16"/>
	<path class="st3" d="M322.54,57.73c0,0,2.38,0,5.97,0c3.6,0,3.92-4.17,3.92-4.17s0.06-1.73,0-7.58c-0.13-5.14-4.37-4.75-4.37-4.75
		H303.4l-0.26,26.85h6.17V57.79h5.97l11.05,10.15h8.8L322.54,57.73z M309.3,53.56v-7.9h15.74c0,0,1.35,0,1.28,1.61
		c-0.06,1.61,0,4.43,0,4.43s0.39,1.73-1.99,1.86C321.96,53.68,309.3,53.56,309.3,53.56z"/>
	<path class="st3" d="M269.61,41.1h6.17v21.97h17.92V40.97h6.29v22.22c0,0,0.06,4.82-4.82,4.88c-4.88,0.06-19.46,0-19.46,0
		s-6.36,0.19-6.36-5.07S269.61,41.1,269.61,41.1z"/>
	<rect x="336.86" y="41.29" class="st3" width="6.29" height="26.72"/>
	<rect x="336.79" y="40.9" class="st3" width="27.75" height="4.69"/>
	<rect x="336.89" y="63.38" class="st3" width="27.75" height="4.69"/>
	<rect x="337.4" y="51.82" class="st3" width="24.31" height="4.69"/>
	
		<linearGradient id="SVGID_00000008118888988140074990000002873505893505792167_" gradientUnits="userSpaceOnUse" x1="55.7839" y1="19.2266" x2="72.4994" y2="19.2266">
		<stop  offset="0" style="stop-color:#50975A"/>
		<stop  offset="1" style="stop-color:#7CBA6F"/>
	</linearGradient>
	<path style="fill:url(#SVGID_00000008118888988140074990000002873505893505792167_);" d="M60.56,3.33c0,0-0.39,5.2,6.26,12.52
		c3.28,3.66,9.34,7.9,2.7,17.63c-2.02-2.5-6.36-9.92-8.86-18.69c0.67,4.14-0.19,10.12,7.32,20.33c-2.6-0.77-13.58-3.37-12.04-19.75
		C56.41,12.48,58.63,5.93,60.56,3.33z"/>
	
		<linearGradient id="SVGID_00000152973796038220708460000017035474315080249740_" gradientUnits="userSpaceOnUse" x1="73.4335" y1="27.7506" x2="92.3478" y2="27.7506">
		<stop  offset="0" style="stop-color:#50975A"/>
		<stop  offset="1" style="stop-color:#7CBA6F"/>
	</linearGradient>
	<path style="fill:url(#SVGID_00000152973796038220708460000017035474315080249740_);" d="M73.56,33.87c0,0-2.89-15.03,18.79-13.1
		c-2.12,1.35-3.95,2.5-6.26,8.29c-1.25,2.79-3.66,6.94-11.08,5.59c0.48-1.16,2.31-4.72,9.73-10.12
		C83.2,24.81,79.25,26.74,73.56,33.87z"/>
	<path d="M363.72,21.78c0,0.88-0.05,1.77,0.01,2.65c0.06,0.83-0.34,1-1.06,1c-0.69-0.01-0.99-0.22-0.98-0.97
		c0.04-2.54,0.02-5.07,0.01-7.61c0-0.64,0.15-1.15,0.89-1.12c2.39,0.08,4.78,0.14,7.16,0.33c0.46,0.04,1.03,0.55,1.27,1
		c0.81,1.49,0.37,3.53-0.93,4.09c-0.72,0.31-1.61,0.21-2.43,0.28c-0.33,0.03-0.66,0-0.99,0c-0.05,0.11-0.09,0.21-0.14,0.32
		c1.39,1.13,2.79,2.26,4.18,3.4c-0.91,0.5-1.97,0.34-2.73-0.3c-1.29-1.08-2.62-2.12-3.93-3.18
		C363.94,21.7,363.83,21.74,363.72,21.78z M363.72,20.69c0.55-0.11,0.88-0.23,1.22-0.24c0.97-0.04,1.94-0.03,2.9-0.06
		c0.88-0.03,1.43-0.49,1.5-1.38c0.07-0.84,0.12-1.74-1.12-1.79c-1.31-0.05-2.62-0.11-3.92-0.1c-0.2,0-0.54,0.37-0.56,0.58
		C363.68,18.66,363.72,19.61,363.72,20.69z"/>
	<path d="M323.34,20.64c0-1.28,0.02-2.57-0.01-3.85c-0.02-0.77,0.23-1.16,1.07-1.14c1.84,0.04,3.68-0.02,5.52,0.03
		c0.65,0.02,1.36,0.09,1.91,0.38c0.6,0.32,1.15,0.8,1.11,1.71c-0.07,1.8-0.01,3.6-0.02,5.41c-0.01,1.43-0.72,2.17-2.15,2.19
		c-2.15,0.03-4.3,0.01-6.45,0.05c-0.78,0.02-1.03-0.27-0.99-1.04C323.39,23.14,323.34,21.89,323.34,20.64
		C323.34,20.64,323.34,20.64,323.34,20.64z M325.31,20.46C325.32,20.46,325.32,20.46,325.31,20.46c0.01,0.9,0.04,1.81,0,2.71
		c-0.03,0.64,0.23,0.87,0.85,0.85c1.21-0.03,2.43-0.03,3.65-0.02c0.97,0.01,1.38-0.49,1.38-1.41c0-1.21,0-2.43,0-3.64
		c0-1.25-0.6-1.88-1.89-1.92c-1.04-0.03-2.08,0.02-3.13-0.01c-0.72-0.03-0.89,0.32-0.86,0.96
		C325.34,18.79,325.31,19.63,325.31,20.46z"/>
	<path d="M300.29,19.93c0-0.97,0.02-1.94-0.01-2.92c-0.02-0.77,0.03-1.37,1.06-1.35c1.01,0.02,0.87,0.69,0.88,1.3
		c0.01,1.74-0.01,3.47,0,5.21c0.01,1.56,0.32,1.85,1.88,1.83c0.8-0.01,1.6-0.01,2.4,0.01c1.23,0.02,1.52-0.21,1.54-1.47
		c0.03-1.87-0.02-3.75,0.04-5.62c0.01-0.41,0.26-0.99,0.58-1.16c0.71-0.4,1.39,0.09,1.4,0.93c0.02,2.12,0.04,4.24-0.01,6.35
		c-0.04,1.44-1.11,2.37-2.57,2.36c-1.53-0.01-3.06-0.01-4.59,0c-1.51,0.01-2.59-1.04-2.6-2.55
		C300.29,21.87,300.29,20.9,300.29,19.93z"/>
	<path d="M316.73,15.62c1.08,0,2.16,0.03,3.23-0.01c0.61-0.03,1.01,0.18,0.88,0.79c-0.05,0.25-0.52,0.58-0.82,0.6
		c-2.35,0.13-2.35,0.11-2.35,2.5c0,1.67-0.04,3.33,0.02,5c0.03,0.79-0.34,0.94-1,0.94c-0.63-0.01-1.05-0.1-1.04-0.91
		c0.04-2.12-0.01-4.23,0.03-6.35c0.01-0.84-0.26-1.24-1.14-1.15c-0.48,0.05-0.99,0.08-1.45-0.02c-0.28-0.06-0.5-0.4-0.74-0.61
		c0.25-0.25,0.48-0.71,0.74-0.73C314.3,15.58,315.52,15.62,316.73,15.62z"/>
	<path d="M269.42,19.94c0-1.11,0.01-2.22-0.01-3.33c-0.01-0.72,0.32-0.96,1.02-0.97c0.71-0.01,0.92,0.32,0.92,0.94
		c-0.01,1.87-0.01,3.75,0,5.62c0.01,1.49,0.27,1.77,1.74,1.8c1.35,0.02,2.71,0.03,4.06,0c0.59-0.01,1.08,0.07,1.07,0.79
		c-0.01,0.77-0.63,0.6-1.08,0.61c-1.74,0.02-3.47,0.03-5.21,0.02c-1.38,0-2.48-1.11-2.51-2.47c-0.01-0.52,0-1.04,0-1.56
		C269.43,20.91,269.43,20.42,269.42,19.94z"/>
	<path d="M251.1,20.58c0-1.33,0.06-2.67-0.02-3.99c-0.06-0.94,0.48-0.96,1.21-0.96c0.7,0,1.18,0.02,1.16,0.91
		c-0.06,2.66-0.06,5.32,0,7.99c0.02,0.96-0.59,0.83-1.22,0.85c-0.69,0.02-1.22,0-1.16-0.9C251.15,23.18,251.1,21.88,251.1,20.58
		C251.1,20.58,251.1,20.58,251.1,20.58z"/>
	<path d="M146.58,117.39c0,1.59,0.01,3.19,0,4.78c-0.01,1.54-1.03,2.58-2.56,2.6c-1.94,0.03-3.88,0.02-5.82,0.04
		c-0.57,0-1.03-0.03-1.01-0.81c0.01-0.72,0.2-1.08,1.01-1.07c1.84,0.04,3.68,0.04,5.51-0.03c0.36-0.01,0.85-0.32,1.04-0.63
		c0.4-0.64,0.08-1.11-0.7-1.13c-1.14-0.02-2.29-0.01-3.43,0c-1.92,0.01-3.25-1.21-3.31-3.15c-0.05-1.66-0.05-3.32-0.01-4.99
		c0.05-1.96,1.2-3.01,3.15-2.98c1.21,0.02,2.43,0.02,3.64-0.01c1.44-0.03,2.48,0.94,2.48,2.38
		C146.58,114.06,146.57,115.72,146.58,117.39C146.58,117.39,146.58,117.39,146.58,117.39z M144.85,115.69c0-0.9,0-1.8,0-2.7
		c0-0.74-0.3-1.17-1.11-1.16c-1.01,0.02-2.01,0.02-3.02,0.01c-0.9-0.01-1.55,0.46-1.58,1.35c-0.06,1.56-0.06,3.12,0,4.67
		c0.04,1.01,0.67,1.48,1.69,1.47c0.97-0.01,1.94,0,2.91,0.01c0.8,0.01,1.11-0.41,1.1-1.16
		C144.84,117.35,144.85,116.52,144.85,115.69z"/>
	<path d="M17.22,113.77c0-2.14,0.03-4.29-0.01-6.43c-0.02-0.84,0.25-1.19,1.13-1.15c2.17,0.1,4.35,0.12,6.52,0.2
		c1.64,0.06,2.65,1.02,2.89,2.55c0.2,1.24,0.25,2.57,0.01,3.79c-0.45,2.33-1.94,2.86-4.06,3.02c-1.2,0.09-2.42,0.04-3.63,0.01
		c-0.67-0.01-0.92,0.23-0.89,0.91c0.05,1.21-0.03,2.42,0.03,3.63c0.05,0.87-0.47,0.82-1.05,0.83c-0.61,0.01-0.96-0.07-0.95-0.84
		C17.25,118.13,17.22,115.95,17.22,113.77z M22.19,113.55c0.59,0,1.17-0.01,1.76,0c1.02,0.02,1.83-0.73,1.88-1.76
		c0.02-0.48,0.01-0.97,0-1.45c-0.01-1.3-0.71-2.03-2.02-2.07c-0.76-0.02-1.52-0.01-2.28-0.01c-2.42,0.02-2.3-0.34-2.3,2.26
		C19.23,113.53,19.23,113.53,22.19,113.55z"/>
	<path d="M173.83,116.23c0,1.35-0.04,2.7,0.01,4.05c0.03,0.73-0.28,0.89-0.92,0.87c-0.59-0.02-0.97-0.07-0.95-0.84
		c0.05-2.35,0.02-4.71,0.01-7.06c0-1.21-0.26-1.44-1.59-1.46c-1.52-0.02-1.96,0.28-1.97,1.47c-0.02,2.29-0.03,4.57,0.01,6.86
		c0.01,0.71-0.09,1.07-0.94,1.06c-0.79-0.02-0.89-0.34-0.88-1.01c0.05-2.32,0.06-4.64,0.03-6.96c0-0.36-0.23-0.97-0.46-1.03
		c-0.88-0.2-1.82-0.38-2.68-0.22c-0.34,0.06-0.69,1.04-0.71,1.61c-0.08,2.21-0.05,4.43-0.02,6.65c0.01,0.65-0.15,0.97-0.86,0.94
		c-0.62-0.03-1.03-0.09-1.02-0.91c0.05-2.42-0.06-4.85,0.06-7.27c0.04-0.79,0.44-1.66,0.92-2.3c0.3-0.39,1.07-0.6,1.62-0.6
		c1.26,0.01,2.63-0.44,3.75,0.63c0.12,0.11,0.67-0.18,0.99-0.34c1.34-0.7,2.78-0.38,4.13-0.21c0.85,0.11,1.42,0.94,1.43,1.93
		c0,1.38,0,2.77,0,4.15C173.81,116.23,173.82,116.23,173.83,116.23z"/>
	<path d="M85.97,116.28c0-1.45-0.05-2.91,0.02-4.36c0.06-1.22,0.88-1.9,2.12-1.89c0.76,0,1.62-0.24,2.27,0.03
		c1.34,0.56,2.55,0.42,3.86,0c0.63-0.2,1.38-0.02,2.07-0.03c1.17-0.01,1.93,0.55,2.19,1.71c0.13,0.6,0.23,1.23,0.24,1.84
		c0.03,2.25-0.01,4.5,0.02,6.76c0.01,0.69-0.35,0.8-0.91,0.8c-0.57,0-0.92-0.1-0.91-0.79c0.03-2.22,0.02-4.43,0.01-6.65
		c-0.01-1.57-0.38-1.93-1.99-1.92c-1.37,0.01-1.72,0.38-1.72,1.95c-0.01,2.15-0.03,4.3,0.01,6.44c0.01,0.71-0.18,0.98-0.93,0.98
		c-0.76,0-0.94-0.28-0.92-0.98c0.04-2.15,0.02-4.3,0.01-6.44c-0.01-1.74-1.66-2.71-3.15-1.78c-0.31,0.19-0.48,0.82-0.49,1.25
		c-0.05,2.32-0.04,4.64-0.01,6.96c0.01,0.67-0.1,1-0.89,1c-0.81,0-1-0.29-0.97-1.03c0.05-1.28,0.01-2.56,0.01-3.85
		C85.92,116.28,85.95,116.28,85.97,116.28z"/>
	<path d="M77.86,110.03c0.83,0,1.67,0.08,2.49-0.02c1.52-0.17,2.56,0.66,2.64,2c0.13,2.43,0.07,4.88-0.15,7.3
		c-0.1,1.15-1.43,1.85-2.61,1.82c-1.21-0.03-2.43-0.01-3.64-0.01c-1.29,0.01-2.48-0.88-2.63-2.14c-0.17-1.49-0.48-3.07,0.45-4.41
		c0.36-0.52,1.1-0.98,1.73-1.07c1.33-0.18,2.69-0.1,4.04-0.11c0.54-0.01,1.14,0.03,1.16-0.7c0.01-0.75-0.48-0.91-1.19-0.88
		c-1.8,0.06-3.6,0-5.4,0.03c-0.65,0.01-0.93-0.17-0.94-0.88c-0.01-0.72,0.2-1,0.94-0.97C75.78,110.06,76.82,110.03,77.86,110.03
		C77.86,110.03,77.86,110.03,77.86,110.03z M78.44,119.33c0.45,0,0.91-0.06,1.35,0.01c1.02,0.16,1.4-0.47,1.53-1.27
		c0.09-0.57,0.02-1.17-0.03-1.76c-0.05-0.58-0.34-0.95-0.99-0.97c-0.79-0.02-1.59-0.12-2.38-0.12c-2.09-0.01-2.31,0.23-2.28,2.33
		c0.02,1.6,0.21,1.79,1.76,1.78C77.75,119.33,78.09,119.33,78.44,119.33z"/>
	<path d="M220.65,112.69c0,1.63-0.01,3.25,0,4.88c0.01,1.5-0.64,2.64-1.92,3.41c-0.19,0.12-0.44,0.2-0.67,0.2
		c-1.45,0.02-2.91,0.03-4.36,0.01c-1.16-0.02-2.46-1.35-2.48-2.62c-0.05-2.04-0.05-4.08,0-6.12c0.04-1.33,1.39-2.46,2.72-2.44
		c1.31,0.02,2.63,0.01,3.95,0.03c0.66,0.01,0.95-0.26,0.92-0.93c-0.03-0.69,0-1.38-0.01-2.07c-0.01-0.6,0.24-0.88,0.88-0.84
		c0.6,0.04,0.98,0.18,0.97,0.9C220.64,108.95,220.66,110.82,220.65,112.69z M213.02,115.52c0,0.73,0,1.45,0,2.18
		c0,0.07,0,0.14,0.01,0.21c0.07,1.07,0.42,1.41,1.46,1.42c0.93,0.01,1.87,0.02,2.8-0.01c0.91-0.02,1.49-0.58,1.51-1.49
		c0.03-1.59,0.04-3.18,0-4.77c-0.02-0.77-0.36-1.28-1.29-1.23c-1.03,0.06-2.08,0.05-3.11,0c-0.94-0.04-1.33,0.46-1.37,1.3
		C212.99,113.93,213.02,114.73,213.02,115.52z"/>
	<path d="M134.54,115.48c0,0.93-0.01,1.87,0,2.8c0.01,1.82-1.04,2.86-2.85,2.85c-1.11-0.01-2.22-0.02-3.33,0
		c-1.41,0.03-2.93-0.94-3.11-2.33c-0.14-1.12,0.07-2.31,0.29-3.44c0.3-1.52,1.46-1.97,2.87-1.97c1.07,0,2.15,0.01,3.22-0.01
		c0.49-0.01,1.14,0.17,1.16-0.65c0.01-0.83-0.59-0.9-1.22-0.9c-1.8,0-3.61-0.03-5.41,0.01c-0.76,0.02-1.02-0.2-1.03-0.99
		c-0.01-0.86,0.46-0.85,1.05-0.85c2.04,0,4.09-0.01,6.13-0.02c1.04,0,2.2,1.11,2.21,2.15C134.55,113.26,134.54,114.37,134.54,115.48
		z M129.88,119.33c2.74,0,2.74,0,2.88-2.39c0.07-1.13-0.24-1.6-1.38-1.68c-1.13-0.07-2.28-0.02-3.4,0.11
		c-0.34,0.04-0.8,0.46-0.92,0.8c-0.73,2.07,0.05,3.16,2.2,3.16C129.47,119.33,129.68,119.33,129.88,119.33z"/>
	<path d="M182.04,121.13c-0.76,0-1.53-0.06-2.28,0.01c-2.09,0.2-3.2-1.58-3.24-3.08c-0.05-1.62-0.06-3.25,0.01-4.88
		c0.08-1.77,1.38-3.35,3.42-3.17c1.07,0.09,2.15,0.02,3.22-0.01c2.01-0.06,3.12,2.17,2.65,3.9c-0.06,0.23-0.33,0.46-0.56,0.57
		c-1.97,0.93-3.97,1.8-5.92,2.75c-0.38,0.19-0.89,0.68-0.87,1c0.04,0.67,0.47,1.15,1.33,1.12c1.73-0.06,3.46,0.02,5.19-0.03
		c0.77-0.02,0.91,0.31,0.93,0.99c0.02,0.76-0.34,0.86-0.95,0.84C183.98,121.11,183.01,121.13,182.04,121.13
		C182.04,121.13,182.04,121.13,182.04,121.13z M181.34,111.84C181.34,111.84,181.34,111.85,181.34,111.84c-0.52,0-1.04,0.04-1.55,0
		c-0.83-0.07-1.24,0.43-1.38,1.11c-0.13,0.63-0.1,1.31-0.03,1.95c0.02,0.17,0.55,0.46,0.7,0.39c1.45-0.66,2.88-1.37,4.29-2.1
		c0.25-0.13,0.42-0.42,0.62-0.64c-0.33-0.23-0.64-0.59-1.01-0.67C182.46,111.76,181.89,111.84,181.34,111.84z"/>
	<path d="M158.51,121.13c-1.9,0-3.83,0.02-5.76-0.01c-0.56-0.01-1.14-0.09-1.68-0.26c-1.41-0.44-1.76-1.64-1.82-2.92
		c-0.07-1.41,0.07-2.84-0.04-4.25c-0.16-2.07,1.55-4.09,3.74-3.7c0.94,0.17,1.94,0.06,2.9,0c2.11-0.14,3.09,2.34,2.76,3.75
		c-0.07,0.29-0.39,0.6-0.68,0.73c-2,0.94-4.04,1.82-6.03,2.78c-0.34,0.17-0.75,0.67-0.74,1c0.03,0.58,0.36,1.09,1.14,1.08
		c1.63-0.03,3.25-0.01,4.88,0C158.78,119.33,158.78,119.33,158.51,121.13z M156.71,112.89c0.05-0.15,0.09-0.3,0.14-0.45
		c-0.43-0.2-0.84-0.53-1.28-0.57c-1-0.09-2.01,0-3.01-0.04c-0.98-0.04-1.39,0.48-1.46,1.36c-0.04,0.52,0,1.04-0.02,1.56
		c-0.02,0.6,0.32,0.77,0.79,0.55C153.5,114.52,155.1,113.7,156.71,112.89z"/>
	<path d="M297.56,121.13c-0.73,0-1.45,0-2.18,0c-1.86,0.01-3.12-0.79-3.23-2.57c-0.14-2.21,0.06-4.46,0.28-6.68
		c0.11-1.06,1.45-1.91,2.52-1.89c1.21,0.02,2.43,0.09,3.63,0.03c2-0.09,3.19,1.98,2.72,3.82c-0.06,0.26-0.36,0.53-0.62,0.65
		c-1.6,0.75-3.22,1.45-4.83,2.17c-0.4,0.18-0.84,0.34-1.17,0.61c-0.3,0.24-0.73,0.66-0.69,0.92c0.1,0.56,0.26,1.21,1.16,1.18
		c1.73-0.07,3.46-0.01,5.19-0.06c0.72-0.02,1.06,0.14,1.07,0.96c0.01,0.84-0.43,0.87-1.05,0.86
		C299.43,121.12,298.49,121.13,297.56,121.13z M296.76,111.83c0,0.01,0,0.01,0,0.02c-0.35,0-0.69,0-1.04,0
		c-1.4-0.01-1.81,0.38-1.85,1.79c-0.01,0.31,0.02,0.62-0.01,0.93c-0.06,0.72,0.3,0.89,0.88,0.62c1.39-0.63,2.76-1.29,4.13-1.97
		c0.26-0.13,0.43-0.42,0.64-0.64c-0.33-0.25-0.63-0.63-0.99-0.71C297.96,111.74,297.35,111.83,296.76,111.83z"/>
	<path d="M346.67,121.13c-0.73,0-1.46-0.02-2.18,0c-1.81,0.06-3.08-0.72-3.2-2.45c-0.15-2.26,0-4.54,0.18-6.81
		c0.08-1,1.51-1.9,2.55-1.88c1.18,0.02,2.35,0.04,3.53,0.04c2.08,0,3.49,2.07,2.67,3.97c-0.1,0.22-0.35,0.42-0.58,0.53
		c-1.97,0.92-3.96,1.8-5.92,2.76c-0.3,0.15-0.63,0.64-0.61,0.95c0.04,0.56,0.22,1.15,1.06,1.12c1.77-0.05,3.53-0.01,5.3-0.05
		c0.68-0.01,0.99,0.15,1,0.92c0.01,0.8-0.35,0.92-1.01,0.9C348.55,121.11,347.61,121.13,346.67,121.13z M345.93,111.83
		c0,0.01,0,0.01,0,0.02c-0.42,0-0.83,0.01-1.25,0c-1.2-0.02-1.59,0.31-1.69,1.52c-0.04,0.45-0.02,0.9-0.01,1.35
		c0.01,0.63,0.4,0.69,0.85,0.48c1.39-0.63,2.77-1.29,4.14-1.97c0.25-0.13,0.41-0.44,0.62-0.66c-0.33-0.25-0.63-0.62-0.99-0.71
		C347.06,111.74,346.48,111.83,345.93,111.83z"/>
	<path d="M232.6,121.13c-1.86,0-3.69,0.03-5.52-0.01c-0.73-0.02-1.5-0.07-2.19-0.3c-1.09-0.36-1.57-1.24-1.57-2.39
		c0.01-1.8,0.06-3.61-0.02-5.4c-0.08-1.78,1.26-3.11,3.1-3.01c1.07,0.06,2.15,0.03,3.22,0c1.95-0.04,3.36,1.74,2.83,3.64
		c-0.09,0.32-0.4,0.67-0.7,0.81c-2,0.95-4.04,1.81-6.03,2.79c-0.33,0.16-0.69,0.82-0.6,1.14c0.1,0.37,0.65,0.87,1.03,0.89
		c1.69,0.09,3.4,0.04,5.1,0.04C232.78,119.33,232.78,119.33,232.6,121.13z M225.2,115.56c1.8-0.89,3.43-1.69,5.04-2.53
		c0.15-0.08,0.27-0.54,0.19-0.69c-0.13-0.22-0.45-0.44-0.7-0.45c-1.21-0.05-2.43-0.11-3.63,0.01c-0.37,0.04-0.92,0.57-0.98,0.94
		C225,113.63,225.15,114.47,225.2,115.56z"/>
	<path d="M106.92,121.17c-0.9,0-1.8-0.02-2.7,0c-1.1,0.03-2.51-0.88-2.57-1.98c-0.12-2.41-0.11-4.83-0.01-7.25
		c0.04-1,1.55-1.96,2.63-1.95c1.25,0.01,2.49,0.03,3.74,0.02c1.25-0.01,2.33,0.92,2.49,2.15c0.22,1.76,0.08,2.04-1.51,2.77
		c-1.61,0.74-3.23,1.48-4.87,2.16c-0.68,0.28-0.88,0.71-0.75,1.37c0.13,0.64,0.47,0.9,1.16,0.88c1.73-0.05,3.47,0,5.2-0.03
		c0.71-0.01,1.08,0.16,1.08,0.98c0,0.87-0.51,0.83-1.09,0.83c-0.94,0-1.87,0-2.81,0C106.92,121.14,106.92,121.16,106.92,121.17z
		 M103.27,113.86c0.02,0,0.03,0,0.05,0c0,0.34-0.07,0.71,0.03,1.02c0.05,0.17,0.44,0.42,0.56,0.37c1.47-0.67,2.93-1.38,4.37-2.12
		c0.2-0.1,0.43-0.57,0.36-0.69c-0.17-0.27-0.51-0.59-0.8-0.61c-1.13-0.06-2.28-0.08-3.4,0.02c-0.36,0.03-0.79,0.43-1,0.78
		C103.24,112.97,103.31,113.45,103.27,113.86z"/>
	<path d="M324.81,121.13c-0.73,0-1.45-0.02-2.18,0.01c-1.77,0.07-3.06-0.75-3.17-2.48c-0.14-2.19-0.02-4.41,0.16-6.6
		c0.1-1.18,1.44-2.07,2.61-2.05c1.21,0.02,2.42,0.03,3.63,0.03c1.94-0.01,3.37,2.22,2.53,4c-0.1,0.22-0.37,0.41-0.6,0.51
		c-1.89,0.87-3.78,1.72-5.68,2.57c-0.53,0.23-1.02,0.45-0.85,1.19c0.17,0.72,0.48,1.11,1.35,1.07c1.69-0.09,3.39,0,5.09-0.04
		c0.73-0.02,0.96,0.25,0.96,0.96c0.01,0.73-0.32,0.88-0.95,0.86C326.75,121.11,325.78,121.13,324.81,121.13z M324.03,111.83
		c0,0,0,0.01,0,0.01c-0.38,0-0.76,0-1.14,0c-1.25-0.02-1.64,0.33-1.72,1.59c-0.03,0.41-0.01,0.83-0.01,1.24
		c-0.01,0.61,0.34,0.74,0.81,0.53c1.39-0.63,2.77-1.27,4.14-1.96c0.27-0.13,0.42-0.49,0.62-0.74c-0.35-0.22-0.67-0.56-1.04-0.64
		C325.15,111.75,324.58,111.83,324.03,111.83z"/>
	<path d="M279.88,121.16c-0.87,0-1.73-0.03-2.6,0.01c-1.22,0.05-2.64-0.86-2.7-2.06c-0.11-2.37-0.09-4.76,0.01-7.14
		c0.04-1,1.51-1.98,2.6-1.97c1.14,0.01,2.29,0.03,3.43,0.03c2.16-0.01,3.59,1.87,2.78,3.85c-0.19,0.47-0.89,0.79-1.43,1.04
		c-1.6,0.76-3.22,1.49-4.85,2.17c-0.64,0.27-0.96,0.59-0.82,1.32c0.15,0.77,0.56,0.97,1.32,0.94c1.66-0.06,3.33,0,4.99-0.03
		c0.68-0.01,1.1,0.09,1.11,0.94c0.01,0.93-0.54,0.88-1.15,0.87c-0.9-0.01-1.8,0-2.7,0C279.89,121.14,279.89,121.15,279.88,121.16z
		 M279.08,111.81c0,0.01,0,0.02,0,0.03c-0.28,0-0.55,0-0.83,0c-1.79,0-2.02,0.23-2.03,2.06c0,0.28-0.09,0.61,0.03,0.81
		c0.14,0.23,0.56,0.55,0.71,0.48c1.42-0.61,2.83-1.28,4.21-1.98c0.24-0.12,0.57-0.61,0.53-0.66c-0.23-0.29-0.54-0.64-0.87-0.71
		C280.27,111.73,279.67,111.81,279.08,111.81z"/>
	<path d="M39.17,115.5c0,0.93,0.01,1.87,0,2.8c-0.02,1.84-1.16,2.9-2.99,2.85c-1.18-0.04-2.36-0.03-3.53,0.01
		c-1.46,0.05-2.83-1.15-2.86-2.64c-0.04-2.04-0.03-4.09,0-6.13c0.01-1.2,1.33-2.41,2.53-2.4c1.45,0.01,2.91,0.01,4.36,0
		c1.26,0,2.47,1.14,2.49,2.39C39.17,113.42,39.16,114.46,39.17,115.5C39.16,115.5,39.17,115.5,39.17,115.5z M34.56,111.85
		C34.56,111.85,34.56,111.85,34.56,111.85c-0.59,0-1.18,0-1.77,0.01c-0.82,0.01-1.19,0.53-1.21,1.25c-0.04,1.59-0.04,3.18-0.01,4.76
		c0.02,0.99,0.5,1.44,1.49,1.45c1.04,0.02,2.08,0.01,3.12,0c0.86,0,1.23-0.43,1.21-1.29c-0.03-1.62-0.03-3.25,0.01-4.87
		c0.02-0.85-0.28-1.32-1.17-1.32C35.67,111.85,35.11,111.85,34.56,111.85z"/>
	<path d="M261.2,115.5c0,0.97,0.01,1.94,0,2.91c-0.03,1.76-1.21,2.81-3,2.74c-1.14-0.04-2.29-0.04-3.43,0
		c-1.59,0.05-2.96-1.15-2.99-2.74c-0.04-2.01-0.03-4.02,0-6.02c0.02-1.24,1.4-2.43,2.65-2.4c1.25,0.03,2.49,0.06,3.74,0.03
		c1.99-0.05,3.01,0.9,3.03,2.88C261.21,113.77,261.2,114.63,261.2,115.5z M259.4,115.6c0,0,0.01,0,0.01,0c0-0.86-0.01-1.72,0-2.59
		c0.01-0.75-0.33-1.17-1.1-1.17c-1.11,0-2.21,0.02-3.32,0c-0.92-0.02-1.36,0.49-1.39,1.31c-0.05,1.59-0.05,3.18,0,4.76
		c0.03,0.86,0.47,1.42,1.43,1.41c1.07-0.01,2.14,0,3.21,0c0.83,0,1.16-0.45,1.15-1.24C259.39,117.26,259.4,116.43,259.4,115.6z"/>
	<path d="M197.48,116.51c0,1.28-0.03,2.56,0.01,3.84c0.03,0.7-0.32,0.81-0.89,0.79c-0.57-0.02-0.99-0.04-0.98-0.83
		c0.04-2.32,0.02-4.64,0.02-6.96c0-1.34-0.26-1.58-1.57-1.53c-0.8,0.03-1.59,0.02-2.39,0.02c-1.24-0.01-1.56,0.27-1.59,1.57
		c-0.03,1.66-0.01,3.32-0.01,4.99c0,0.55-0.03,1.11,0.01,1.66c0.05,0.7-0.09,1.09-0.94,1.09c-0.88,0-0.92-0.45-0.91-1.11
		c0.02-2.28-0.02-4.57,0.02-6.85c0.02-1.28,0.25-2.52,1.71-2.99c0.35-0.11,0.73-0.16,1.1-0.16c1.25-0.03,2.49-0.01,3.74-0.04
		c1.35-0.03,2.52,0.9,2.6,2.26c0.08,1.41,0.02,2.84,0.02,4.25C197.45,116.51,197.46,116.51,197.48,116.51z"/>
	<path d="M51.26,114.77c0,1.14,0,2.28,0,3.42c0,1.84-1.23,3.01-3.04,2.95c-1.11-0.04-2.23-0.1-3.32,0.01
		c-1.85,0.19-3.03-1.36-3.05-2.87c-0.04-2.49,0.01-4.98-0.03-7.47c-0.01-0.81,0.46-0.78,1-0.8c0.56-0.02,0.92,0.08,0.91,0.78
		c-0.03,2.32-0.02,4.63-0.01,6.95c0,1.23,0.39,1.63,1.6,1.65c0.93,0.01,1.87,0.03,2.8-0.01c0.91-0.03,1.36-0.56,1.34-1.48
		c-0.04-2.31-0.04-4.63-0.11-6.94c-0.02-0.74,0.23-0.96,0.94-0.96c0.68,0,1.01,0.14,0.98,0.92
		C51.22,112.21,51.26,113.49,51.26,114.77z"/>
	<path d="M352.93,114.75c0-1.28,0.03-2.56-0.01-3.84c-0.02-0.69,0.23-0.92,0.9-0.9c0.62,0.02,1.04,0.07,1.03,0.89
		c-0.05,2.35-0.02,4.7-0.01,7.06c0.01,1.15,0.28,1.42,1.4,1.44c0.87,0.01,1.73-0.04,2.6,0.01c1.07,0.05,1.41-0.55,1.42-1.47
		c0.01-2.28,0.04-4.57-0.01-6.85c-0.02-0.83,0.25-1.12,1.07-1.07c0.58,0.03,0.79,0.23,0.78,0.81c-0.02,2.49,0.03,4.98-0.02,7.47
		c-0.05,2.05-1.09,2.91-3.18,2.84c-1-0.03-2.01-0.02-3.01,0.02c-1.73,0.08-2.85-0.85-2.92-2.57c-0.05-1.28-0.01-2.56-0.01-3.84
		C352.94,114.75,352.93,114.75,352.93,114.75z"/>
	<path d="M122.59,116.49c0,1.28-0.04,2.56,0.02,3.84c0.04,0.79-0.39,0.8-0.97,0.82c-0.62,0.01-0.95-0.1-0.93-0.85
		c0.06-2.42,0.03-4.84,0.08-7.26c0.02-0.88-0.48-1.19-1.21-1.22c-1.11-0.04-2.21-0.02-3.32,0c-1.03,0.02-1.23,0.75-1.24,1.56
		c-0.02,2.25-0.03,4.5,0.01,6.75c0.01,0.65-0.02,1.06-0.85,1.03c-0.71-0.02-1.05-0.15-1.02-0.99c0.07-2.25,0.09-4.5,0-6.74
		c-0.07-1.83,1.18-3.76,3.38-3.42c1.08,0.17,2.21,0.03,3.32,0c1.37-0.03,2.69,1.17,2.74,2.54c0,0.03,0,0.07,0,0.1
		C122.59,113.93,122.59,115.21,122.59,116.49z"/>
	<path d="M303.02,110.19c1.9-0.4,2-0.34,2.86,0.97c0.54,0.82,1.15,1.6,1.85,2.57c0.65-0.91,1.3-1.6,1.69-2.41
		c0.64-1.33,1.65-1.49,3.04-1.17c-1.1,1.59-2.14,3.14-3.24,4.65c-0.32,0.43-0.38,0.67-0.03,1.14c1.18,1.6,2.27,3.27,3.4,4.91
		c-1.11,0.56-1.8,0.43-2.48-0.48c-0.78-1.04-1.52-2.11-2.4-3.35c-0.68,0.99-1.32,1.91-1.93,2.84c-0.92,1.38-1.34,1.55-2.98,1.08
		c1.06-1.54,2.05-3.09,3.17-4.55c0.56-0.73,0.6-1.21,0-1.96C304.93,113.1,304.04,111.67,303.02,110.19z"/>
	<path d="M239.9,110.21c1.4-0.44,1.66-0.29,2.13,1c0.92,2.5,1.89,4.98,2.9,7.64c0.25-0.32,0.51-0.55,0.61-0.82
		c0.94-2.5,1.82-5.02,2.78-7.5c0.41-1.05,1.31-0.2,2.15-0.61c-0.88,2.37-1.65,4.47-2.43,6.57c-0.48,1.28-0.91,2.59-1.53,3.8
		c-0.26,0.5-0.98,1.08-1.46,1.05c-0.55-0.03-1.34-0.59-1.54-1.11c-1.3-3.24-2.46-6.53-3.66-9.81
		C239.83,110.35,239.88,110.27,239.9,110.21z"/>
	<path d="M64.98,113.63c0-2.25,0.04-4.5-0.02-6.74c-0.03-0.99,0.55-0.91,1.19-0.92c0.68-0.02,1.18,0,1.17,0.95
		c-0.04,4.46-0.05,8.92,0,13.38c0.01,1-0.56,0.9-1.2,0.91c-0.66,0.01-1.2,0.05-1.17-0.94C65.03,118.05,64.98,115.84,64.98,113.63z"
		/>
	<path d="M314.31,113.74c0-2.11,0.02-4.22-0.01-6.33c-0.01-0.74,0.15-1.21,1-1.23c0.92-0.03,0.86,0.6,0.86,1.2
		c0,0.31,0,0.62-0.01,0.93c0,1.52,0,1.55,1.48,1.7c0.66,0.07,0.65,0.46,0.66,0.94c0.01,0.5-0.02,0.85-0.68,0.91
		c-1.46,0.12-1.45,0.15-1.45,1.57c0,2.25-0.03,4.5,0.01,6.74c0.01,0.72-0.2,0.98-0.93,0.98c-0.74,0.01-0.95-0.27-0.93-0.98
		C314.34,118.03,314.31,115.89,314.31,113.74z"/>
	<path d="M265.71,111.9c0,2.78,0,5.48,0,8.17c0,1.03-0.22,1.25-1.21,1.03c-0.25-0.06-0.61-0.46-0.61-0.71
		c-0.04-4.43-0.02-8.87-0.03-13.3c0-0.72,0.4-0.86,0.99-0.89c0.65-0.04,0.87,0.29,0.87,0.87c0,0.66,0.02,1.32-0.01,1.97
		c-0.03,0.69,0.23,1.05,0.97,0.99c0.68-0.05,1.2-0.02,1.19,0.94c-0.01,1.04-0.68,0.84-1.27,0.88
		C266.36,111.87,266.12,111.88,265.71,111.9z"/>
	<path d="M200.15,113.73c0-2.11,0.02-4.23-0.01-6.34c-0.01-0.75,0.19-1.2,1.03-1.2c0.84,0,0.82,0.57,0.81,1.14c0,0.31,0,0.62,0,0.94
		c0,1.54,0,1.51,1.53,1.81c0.25,0.05,0.52,0.51,0.59,0.82c0.11,0.43,0.1,0.94-0.59,0.95c-0.21,0-0.42,0.03-0.62,0.01
		c-0.73-0.07-0.94,0.23-0.92,0.96c0.05,2.46,0,4.92,0.03,7.38c0.01,0.61-0.06,1-0.81,0.97c-0.68-0.03-1.08-0.13-1.05-0.99
		C200.19,118.02,200.15,115.87,200.15,113.73z"/>
	<path d="M331.13,116.34c0-1.18,0.02-2.35-0.01-3.53c-0.03-1.49,1.29-3.19,3.27-2.81c0.64,0.12,0.66,0.45,0.67,0.93
		c0.01,0.51-0.09,0.95-0.7,0.89c-1.19-0.12-1.39,0.59-1.39,1.53c0.01,2.28-0.02,4.56,0.02,6.84c0.01,0.73-0.22,0.95-0.95,0.94
		c-0.75,0-0.95-0.27-0.92-0.98C331.16,118.9,331.12,117.62,331.13,116.34z"/>
	<path d="M364.75,116.51c0.09-1.55,0.16-3.1,0.28-4.65c0.14-1.8,2.07-2.08,3.33-1.73c0.2,0.06,0.29,0.75,0.29,1.15
		c0,0.19-0.32,0.51-0.53,0.55c-1.4,0.28-1.46,0.32-1.46,1.78c-0.01,2.18-0.03,4.36,0.01,6.54c0.01,0.69-0.17,1-0.92,1.01
		c-0.77,0-0.94-0.33-0.91-1.01c0.04-1.21,0.01-2.42,0.01-3.63C364.81,116.51,364.78,116.51,364.75,116.51z"/>
	<path d="M268.71,116.59c0.15-1.68,0.22-3.37,0.49-5.02c0.2-1.26,2.29-2.14,3.34-1.44c0.25,0.16,0.27,0.79,0.25,1.2
		c-0.01,0.18-0.36,0.46-0.59,0.5c-1.37,0.22-1.52,0.36-1.53,1.75c-0.01,2.21-0.03,4.42,0.01,6.64c0.02,0.75-0.25,0.95-0.96,0.95
		c-0.69,0-0.91-0.25-0.88-0.92c0.04-1.21,0.01-2.42,0.01-3.63C268.8,116.6,268.75,116.6,268.71,116.59z"/>
	<path d="M53.84,116.39c0-1.21-0.02-2.42,0-3.63c0.03-1.87,1.37-2.98,3.19-2.74c0.63,0.08,0.69,0.41,0.69,0.92
		c0,0.51-0.09,0.96-0.7,0.91c-1.2-0.11-1.38,0.62-1.38,1.55c0,2.28-0.01,4.57,0.02,6.85c0.01,0.65-0.14,0.93-0.86,0.91
		c-0.68-0.02-1.01-0.14-0.97-0.92C53.89,118.95,53.84,117.67,53.84,116.39z"/>
	<path d="M336.57,115.56c0-1.56,0.04-3.12-0.01-4.68c-0.03-0.76,0.37-0.85,0.96-0.87c0.64-0.02,0.93,0.17,0.93,0.88
		c-0.03,3.15-0.03,6.31,0,9.46c0.01,0.81-0.47,0.76-1.02,0.79c-0.59,0.03-0.89-0.12-0.87-0.8
		C336.6,118.75,336.57,117.15,336.57,115.56z"/>
	<path d="M71.91,107.5c-0.48,1.21-0.83,2.2-1.29,3.15c-0.09,0.19-0.59,0.17-0.91,0.25c0.01-0.27-0.08-0.59,0.03-0.81
		c0.31-0.63,0.45-1.13-0.2-1.69c-0.53-0.46-0.56-1.17-0.02-1.64c0.32-0.28,0.96-0.48,1.32-0.35
		C71.29,106.58,71.57,107.13,71.91,107.5z"/>
	<path d="M326.96,105.64c-1.43,1.11-2.42,2.34-3.96,2.67c-0.13-0.15-0.25-0.3-0.38-0.45c0.86-0.89,1.66-1.85,2.61-2.63
		C325.45,105.05,326.16,105.44,326.96,105.64z"/>
	<path d="M104.64,108.03c0.84-0.97,1.49-1.91,2.34-2.63c0.33-0.28,1.09-0.05,1.79-0.05C108.03,106.84,105.77,108.34,104.64,108.03z"
		/>
	<path d="M370.89,121.18c-0.85-0.05-1.48-0.51-1.37-1.23c0.08-0.49,0.79-1.22,1.22-1.22c0.44,0,1.18,0.69,1.27,1.17
		C372.11,120.48,371.65,121.14,370.89,121.18z"/>
	<path d="M337.72,106.3c0.49,0.1,1.07,0.36,1.03,1.2c-0.03,0.75-0.38,1.19-1.19,1.22c-0.91,0.03-1.11-0.62-1.15-1.27
		C336.36,106.76,336.71,106.26,337.72,106.3z"/>
	<path d="M234.64,24c-1.56,0.02-3.13,0-4.69,0c-0.79,0-1.18-0.34-1.15-1.07l0,0.01V21.4l1.12,0c1.45,0,2.87-0.01,4.27,0.01
		c0.53,0.01,0.87-0.07,0.89-0.7c0-0.03,0-0.04-0.01-0.06h0c0-0.03,0.01-0.05,0.01-0.09c-0.02-0.63-0.37-0.71-0.89-0.7
		c-1.41,0.02-2.82,0.01-4.27,0.01l-1.12,0v-1.54l0,0.01c-0.03-0.73,0.36-1.07,1.15-1.07c1.56,0,3.13-0.02,4.69,0
		c0.55,0.01,0.94-0.06,0.93-0.77c-0.01-0.71-0.49-0.64-0.94-0.64c-1.91,0.01-3.82,0.01-5.73,0.03c-1.06,0.01-1.91,0.81-1.93,1.87
		c-0.02,0.95,0,1.9,0,2.85h-0.01c0,0.96-0.02,1.92,0,2.88c0.02,1.06,0.88,1.86,1.93,1.87c1.91,0.02,3.82,0.03,5.73,0.03
		c0.45,0,0.92,0.07,0.94-0.64C235.58,24.06,235.19,24,234.64,24z"/>
	<path d="M247.16,23.97c-1.56,0.02-3.13,0-4.69,0c-0.79,0-1.18-0.34-1.15-1.07l0,0.01v-1.54h0.01v-1.52h0v-1.54l0,0.01
		c-0.03-0.73,0.36-1.07,1.15-1.07c1.56,0,3.13-0.02,4.69,0c0.55,0.01,0.94-0.06,0.93-0.77c-0.01-0.71-0.49-0.64-0.94-0.64
		c-1.91,0.01-3.82,0.01-5.73,0.03c-1.06,0.01-1.91,0.81-1.93,1.87c-0.02,0.95,0,1.9,0,2.85h-0.01c0,0.96-0.02,1.92,0,2.88
		c0.02,1.06,0.88,1.86,1.93,1.87c1.91,0.02,3.82,0.03,5.73,0.03c0.45,0,0.92,0.07,0.94-0.64C248.11,24.03,247.72,23.96,247.16,23.97
		z"/>
	<path d="M215.84,23L215.84,23l0-1.18h5.25c1.79-0.17,2.53-0.87,2.44-2.52c-0.01-0.24-0.01-0.49-0.01-0.73
		c0.06-2.09-0.37-2.81-1.78-2.96h-6.77c-0.05,0.01-0.1,0-0.15,0.01c-0.58,0.07-0.83,0.23-0.83,0.79c0,2.78,0.01,5.56-0.01,8.33
		c0,0.77,0.53,0.65,1.01,0.68c0.52,0.03,0.88-0.07,0.85-0.72C215.84,24.14,215.84,23.58,215.84,23z M215.81,17.1h1.56h3.38
		c0,0,0.93-0.08,0.94,0.75c0.01,0.83,0,1.9,0,1.9s0.05,0.64-0.7,0.65c-0.5,0-0.82,0.02-0.98,0.02c-0.03,0-0.06,0-0.08,0.01h-4.12
		V17.1z"/>
	<path d="M257.47,25.37c0.29-0.19,0.5-0.56,0.84-1.23c0.2-0.39,0.54-0.77,0.98-0.81c1.24-0.11,3.12-0.11,4.36,0.01
		c0.44,0.04,0.67,0.43,0.88,0.82c0.35,0.65,0.56,1.02,0.83,1.21h1.81c-1.45-2.96-2.86-5.92-4.35-8.83c-0.55-1.07-2.18-1.04-2.82,0
		c-0.42,0.67-0.75,1.41-1.1,2.13c-1.08,2.22-2.14,4.45-3.23,6.7H257.47z M261.1,17.78c0.01-0.01,0.01-0.01,0.02-0.02l0.13-0.29
		c0,0,0.11-0.16,0.25-0.01c0,0,0.01-0.01,0.01-0.01c0,0.01,0.01,0.02,0.01,0.03c0.03,0.04,0.06,0.09,0.09,0.16
		c0.19,0.44,1.9,4.22,1.9,4.22l-4.13-0.02C260.03,20.29,260.57,19.03,261.1,17.78z"/>
	<path d="M297.12,20.55c0-0.81-0.01-1.61-0.03-2.42c-0.03-1.35-1.07-2.3-2.4-2.3c-1.56-0.01-3.12-0.03-4.69-0.04
		c-1.36-0.01-2.19,0.79-2.24,2.17c-0.02,0.45-0.01,0.9-0.01,1.35c0,0.41,0,0.83,0,1.24h0c0,0,0,0,0,0c0,0.45,0,0.9,0,1.35
		c0,0.45-0.01,0.9,0.01,1.35c0.05,1.38,0.88,2.18,2.24,2.17c1.56-0.02,3.13-0.03,4.69-0.04c1.33-0.01,2.37-0.95,2.4-2.3
		C297.12,22.24,297.13,21.39,297.12,20.55L297.12,20.55z M295.17,22.63c-0.04,1.14-0.39,1.39-1.54,1.37c-0.97-0.02-1.94-0.01-2.91,0
		c-0.79,0.01-1.13-0.4-1.13-1.15c0-0.44,0-0.89,0-1.33h0v-1.42h0c0-0.59,0-1.17,0-1.76c0-0.75,0.34-1.16,1.13-1.15
		c0.97,0.01,1.94,0.02,2.91,0c1.16-0.02,1.5,0.23,1.54,1.37c0.03,0.7,0.03,1.39,0.03,2.09h0C295.19,21.32,295.19,21.98,295.17,22.63
		z"/>
	<path d="M345.72,20.57c0-0.81-0.01-1.61-0.03-2.42c-0.03-1.35-1.07-2.3-2.4-2.3c-1.56-0.01-3.12-0.03-4.69-0.04
		c-1.36-0.01-2.19,0.79-2.24,2.17c-0.02,0.45-0.01,0.9-0.01,1.35c0,0.41,0,0.83,0,1.24h0c0,0,0,0,0,0c0,0.45,0,0.9,0,1.35
		c0,0.45-0.01,0.9,0.01,1.35c0.05,1.38,0.88,2.18,2.24,2.17c1.56-0.02,3.13-0.03,4.69-0.04c1.33-0.01,2.37-0.95,2.4-2.3
		C345.72,22.26,345.73,21.42,345.72,20.57L345.72,20.57z M343.76,22.66c-0.04,1.14-0.39,1.39-1.54,1.37c-0.97-0.02-1.94-0.01-2.91,0
		c-0.79,0.01-1.13-0.4-1.13-1.15c0-0.44,0-0.89,0-1.33h0v-1.42h0c0-0.59,0-1.17,0-1.76c0-0.75,0.34-1.16,1.13-1.15
		c0.97,0.01,1.94,0.02,2.91,0c1.16-0.02,1.5,0.23,1.54,1.37c0.03,0.7,0.03,1.39,0.03,2.09h0C343.79,21.35,343.79,22,343.76,22.66z"
		/>
	<path d="M358.41,20.66c0-0.81-0.01-1.61-0.03-2.42c-0.03-1.35-1.07-2.3-2.4-2.3c-1.56-0.01-3.12-0.03-4.69-0.04
		c-1.36-0.01-2.19,0.79-2.24,2.17c-0.02,0.45-0.01,0.9-0.01,1.35c0,0.41,0,0.83,0,1.24h0c0,0,0,0,0,0c0,0.45,0,0.9,0,1.35
		c0,0.45-0.01,0.9,0.01,1.35c0.05,1.38,0.88,2.18,2.24,2.17c1.56-0.02,3.13-0.03,4.69-0.04c1.33-0.01,2.37-0.95,2.4-2.3
		C358.41,22.35,358.42,21.5,358.41,20.66L358.41,20.66z M356.46,22.74c-0.04,1.14-0.39,1.39-1.54,1.37c-0.97-0.02-1.94-0.01-2.91,0
		c-0.79,0.01-1.13-0.4-1.13-1.15c0-0.44,0-0.89,0-1.33h0v-1.42h0c0-0.59,0-1.17,0-1.76c0-0.75,0.34-1.16,1.13-1.15
		c0.97,0.01,1.94,0.02,2.91,0c1.16-0.02,1.5,0.23,1.54,1.37c0.03,0.7,0.03,1.39,0.03,2.09h0C356.49,21.43,356.48,22.09,356.46,22.74
		z"/>
	<path d="M210.41,21.17c-0.01-0.11-0.06-0.19-0.1-0.28c-0.03-0.07-0.06-0.14-0.1-0.2c-0.43-0.63-1.43-0.77-1.89-0.8h-3.51
		c-0.87-0.05-1.22-0.46-1.22-1.3c-0.01-0.89,0.34-1.39,1.3-1.38c1.56,0.02,3.13-0.01,4.69,0.01c0.57,0.01,0.81-0.3,0.68-0.77
		c-0.07-0.27-0.42-0.63-0.67-0.65c-0.93-0.08-1.87-0.03-2.81-0.03c-0.45,0-0.9,0-1.35,0c-0.49,0-0.97-0.01-1.46-0.01
		c-1.3,0.01-2.2,0.92-2.21,2.25c0,0.39-0.01,0.78,0,1.16c0.02,1.21,0.82,2.05,2,2.09c0.34,0.01,0.68,0.01,1.02,0.02h2.15
		c0,0,1.44-0.04,1.66,0.65c0.09,0.31,0.12,0.58,0.11,0.66c0,0.02,0.01,0.03,0.01,0.05c0.01,0.87-0.34,1.37-1.3,1.35
		c-1.56-0.02-3.13,0.01-4.69-0.01c-0.57-0.01-0.81,0.29-0.68,0.76c0.07,0.26,0.42,0.61,0.67,0.63c0.93,0.07,1.87,0.03,2.81,0.03
		c0.45,0,0.9,0,1.35,0c0.49,0,0.97,0.01,1.46,0.01c1.3-0.01,2.2-0.91,2.21-2.22c0-0.36,0.01-0.72,0-1.08
		C210.5,21.92,210.46,21.6,210.41,21.17z"/>
</g>
</svg>
