<?xml version="1.0" encoding="utf-8"?>
<!-- Generator: Adobe Illustrator 25.4.1, SVG Export Plug-In . SVG Version: 6.00 Build 0)  -->
<svg version="1.1" xmlns="http://www.w3.org/2000/svg" xmlns:xlink="http://www.w3.org/1999/xlink" x="0px" y="0px"
	 viewBox="0 0 436.61 167.22" style="enable-background:new 0 0 436.61 167.22;" xml:space="preserve">
<style type="text/css">
	.st0{fill:#59402D;}
	.st1{fill:#383228;}
	.st2{fill:#677A43;}
	.st3{fill:#AAC245;}
	.st4{fill:#677A42;}
</style>
<g id="Calque_1">
</g>
<g id="Calque_2">
	<path class="st0" d="M51.59,77.56c0,0,3.63-26.67,31.7-26.74c21.33,0.3,28.44,21.78,28.44,21.78s-2.96-22.07-28.15-24
		C79.22,48.37,54.56,49.56,51.59,77.56z"/>
	<path class="st1" d="M116.19,89.04c3.33-18-3.78-25.85-5.04-27.48c5.48,11.04,2.89,22.22,2.07,25.7
		c-4.52,15.78-15.5,19.69-18.56,21.13c-3.06,1.44-5.33,1.83-6.61,1.17c-2.67-1.5-3.61-4.5-3.67-5.72c0.06-4.67,4.22-5.22,4.22-5.22
		s4,0,6.39-0.67c1.78-0.56,7.67-3.56,7.67-3.56s0,0,2.22-1.83c0.56-0.72,0.61-1.61-0.11-1.22c-6.56,4.11-9.94,4.33-9.94,4.33
		l1.5-1.94l1.78-0.56l0.33-0.44L96.89,93l3.06-2.44l0.17-0.61l-2.33,1.94l-0.11-1.33l-0.22-0.28L97.5,92l-2.28,2.06l-0.11-0.89
		L94.89,93L95,94.44l-1.28,1.5c0,0-5,0.22-5.83-0.33c-1.33-1.56,1.39-2.83,2.39-2.94c4.44-0.39,6.78-4.94,6.78-4.94
		s2.56-0.17,3.06-0.28c3.94-1.22,5.83-1,5.83-1l1.06-0.28c0,0,0,0-1.44-0.06c-1.72,0.11-5.44,1-5.44,1l0.89-1.06l-0.11-0.33
		l-1.17,1.33c0,0,0,0-2.39,0.06c0.67-1.56,1.67-2.28,2.78-3.06c2.06-1.11,5.39-1.89,5.39-1.89s0,0,2.33,0.06
		c0.94-0.22,0.78-0.83,0.28-0.83c-0.94,0.11-0.33-0.33-0.33-0.33s0,0,0.72-0.61c0.56-0.56,0-0.89,0-0.89l-0.78,0.11
		c0,0-0.44,0.17-1.83,0.89c-1.33,0.72-2.5,1-2.5,1l0.94-1.5l2.17-1.33l0.06-0.33l-1.78,0.89l0.89-1.33l2.44-3.11v-0.44l-1.78,1.94
		L106,74.28l-0.22-0.17l0.17,2.72l-2.67,3.89c0,0,0,0-0.78,1.06c-1.17,0.89-1.22-0.28-1.22-0.28l0.61-3.11l2.78-4.06l-0.33-0.06
		l-2.67,2.94v-3.94l1.28-1.11v-0.28l-1.28,0.72v-2.17l0.56-1.44l-0.72,0.89l-0.39-2.61c0,0,0-0.17-0.22,0.5
		c0.5,1.78,0.17,3.39,0.17,3.39l-2.28-2.94L97.67,66l-0.44-0.17l0.83,1.83l-1.28-0.39l1.5,0.94l2.78,3.67l0.11,3.44
		c0,0-0.61-1.61-0.67-1.06c0.39,0.94,0.56,1.83,0.56,1.83s0,0,0,2.33c-0.17,1.94-1,1.78-1,1.78l-0.78-1.72l-0.39-0.22l0.89,2.33
		c0,0,0,0-0.22,2.44c-3.39,0.94-4,4.06-4,4.06s0,0-0.67,0.83c-0.44-0.72-0.22-2.72-0.22-2.72l-0.22-0.06c0,0,0,0-0.11,0.83
		c-0.11,0.83,0,0,0.17,2.22c-2.22,2.22-4.5,2.78-5.22,2.67c-1.22-0.56,0.44-2.06,0.44-2.06s0,0,2.11-1.83
		c1.5-1.33,3.11-4.94,3.11-4.94l1.61-0.83l0.17-0.28l-1.44,0.5l0.39-1.17l1.56-5.22c0,0,0,0-0.5-0.06
		c-0.39,1.22-0.94,3.22-0.94,3.22l-0.44-1.17L95,76.72l0.61,2.17L95,81.22c0,0,0,0-1.22,2.06c-1.5,2.22-1.22,0.56-1.22,0.56
		l-0.06-1.94l0.78-1.72l-0.83,0.94l-0.06-2.61c0,0,0,0,0.28-4.06c0.06-1.28,1.17-2,1.17-2s0,0,1.72-1.39
		c1.22-0.94,1.28-2.22,1.28-2.22s0,0-0.44,0.56c-0.39,1.28-3.28,2.67-3.28,2.67l-0.33,0.17l-0.11-0.61l0.94-1.39l-1.06,0.72
		l0.06-2.39l0.72-0.5l0.06-0.39l-0.83,0.44l0.33-1.89l-0.17-0.83l-0.33,2.17l-0.5-0.94H91.5l0.72,1.33l0.11,1.78l-1-1L91.22,69
		l1,1.11l0.06,2.61l-0.39,0.72l-0.28-0.56l-0.33-0.17l0.39,1l-0.17,2.83l-0.39,0.17l-1.51-2.84l-0.33-6.78c0,0-0.22-0.89,0.89-2.33
		c-0.11-0.33-0.11-0.33-0.11-0.33s-0.83,1.17-1.06,2c-0.83-1.39-0.83-1.39-0.83-1.39v0.56l0.78,1.61L89,67.94l-1.39-1.5l0.15,0.46
		l1.25,1.42l0.27,4.97l-0.57-1.07l-0.83-4.94l-0.28-0.33c0,0,0.14,2.39,0.39,4.14c-1.22-1.86-2.86-3-2.86-3s0,0-0.06,0.28
		c0.89,0.67,1.86,2.03,1.86,2.03l-1.39-0.36l-0.03,0.28c0,0,0,0,1.75,0.56c1.03,1.25,2.22,4.56,2.36,4.86
		c0.14,0.31,0.97,3.11,0.97,3.11l0.08,2.69l-1-1.03l0.08,0.36l0.97,1.19c0,0,0.06,1.08,0.19,2.11c0.14,1.03-0.36,1.28-0.36,1.28
		l-2.33,1.61c0,0,0,0-1.39,1.14c-1.42,1.64-1.5,1.28-1.69,1.08c-0.69-1-0.5-3.06-0.5-3.06s0.03-1.92,0.42-2.83
		c1.61-3.22,2.22-6.61,2.22-6.61s0,0-0.28,0c-0.39,1.83-2.06,5.14-2.06,5.14v-2.94l0.72-2.56l0.06-0.64l-0.94,2.69l-0.44-1.31
		l-0.53-3.53l-0.19-0.11L84,76.61l-0.72-0.47l-0.25,0.11l1,0.75l0.5,1.64c0,0,0,0,0.03,3.97c-0.06,0.64-0.36,0.31-0.69-0.11
		c-0.72-0.94-0.97-2.36-0.97-2.36h-0.28l0.06,0.58c0,0,0,0,0.75,2.25c0.47,2.61-0.11,3.83-0.11,3.83l-1.28-1.53h-0.22l1.08,1.67
		l0.78,2.08c0,0,0,0,0.67,2c0.39,1.81-0.47,4.06-0.47,4.06s-0.31,0.72-0.94,2.42c-0.32,0.85-0.86,0.88-1.31,0.69
		c-0.12-0.17-1.27-1.7-1.86-2.86c-0.63-1.22-0.52-1.44-0.52-1.44l1.63-3l-0.33-0.3l-0.11-1.48l-0.26-0.07v1.63l-1.15,2l-0.26-0.41
		l-0.33-4.93c0,0,0,0-0.11-4.04c-0.07-1.33,0.74-2.37,0.74-2.37l2.28-1.59l-0.76,0.3c0,0,0,0-1.22,0.56
		c1.15-1.63,1.07-3.07,1.07-3.07l0.07-5.96l1.41-3.26l-0.07-0.48c0,0,0,0-1.33,2.33c-0.22,1-0.7,0.96-0.7,0.96l-0.81-0.63
		c0,0-0.04-1.63,0.07-2.04c1.85-3.59,4-4.7,4-4.7s0.44-0.04,0.33-0.41c-0.7,0.15-2.48,1.56-2.48,1.56l0.07-0.96l-0.22-0.41
		l-0.07,1.56l-1.93,2.81l-0.19-0.41v-1.93L78.3,65v2.04l-0.63-0.48l-0.15,0.04l0.74,0.89l0.07,1.7l-0.11,0.3l-1.93-1.04
		c0,0,0,0-0.04,0.22c0.41,0.15,2.11,1.52,3.3,2.81c0.22,1.3-0.07,4.11-0.07,4.11l-0.41-0.26l-1.48-3l-0.15,0.33l1.19,2.52l-0.85-0.7
		l-0.04,0.3L79.11,76l0.15,1.41l-1.78,2.67c0,0-0.74,0.81-0.96,0.33c-1.26-2.37-2.15-3.11-2.15-3.11l0.11-4.56c0,0,0,0-0.3,0.11
		c-0.04,1.07-0.48,4.04-0.48,4.04l-1.63-0.7v-0.74l-0.19-0.07l-0.15,0.7l-1.15-0.52l-0.04-1.74L70.15,73L70,71.93l0.59-0.89
		l1.56-0.52l-0.41-0.15l-0.96,0.19l0.3-1.89l0.19-0.11l1.37-0.52v-0.22l-1.22,0.26l0.85-2.19l-0.37-0.04L71,68.15l-0.74-1.93
		l-0.34-0.11c0,0,0.64,1.41,0.68,2.26c-0.33,2.85-0.85,2.96-0.85,2.96l-0.33-1.59l-0.22,0.07l0.07,0.52l0.07,0.22l0.3,2.26
		l-0.67-0.89c0,0,0,0-0.11,0.37c0.22,0.19,1,1.63,1,1.63s0,0-0.04,1.33C68.33,74.33,66,71.93,66,71.93s0,0-0.07,0.15
		c1.52,2.26,4.15,3.96,4.15,3.96s0,0,2.96,1.63c2.22,1.41,3.19,8.03,3.19,8.03s0,0-0.69-0.56c-1.06-2.61-2.78-4.03-2.78-4.03
		s0,0-0.22,0.11c1.67,1.31,2.56,3.72,2.56,3.72l-0.97-0.64c0,0,0,0-0.08,0.22c0.92,0.56,2.11,2.11,2.11,2.11s0,0,0.03,3.22
		c0,1.03-0.64,1.42-1.11,1.39c-0.72,0-1.33-0.56-1.33-0.56l-1.06-1.39l-0.14-1.08l-0.14-0.03l0.03,0.89l-1.11-0.97l-0.17,0.08
		c0,0,1.14,1.03,1.92,2.25c-2.22-1.17-3.02-1.85-3.02-1.85s0,0-0.78-0.89c0-2.05-1.14-3.83-1.44-4.26c-0.03-0.34-0.1-1.01-0.24-2.36
		l-0.05-0.73c0.05-1.51-0.17-2.23-0.67-2.87C66.33,76.85,66,75.15,66,75.15s-0.56-1-0.26,0c0.3,1,0.52,1.89,0.89,2.67
		c0.7,0.89,0.48,2.52,0.48,2.52l0.13,2.55L66.3,81.7c0,0,0,0-0.93-1.04c-0.44-1.52-1.07-2.89-1.33-3.59c-0.26-0.7-0.56-2.7-0.56-2.7
		s0,0-0.04-1.96c-0.04-1.63-0.67-3.56-0.67-3.56s0,0-0.26,0c0.76,2.18,0.63,4.44,0.63,4.44L59.74,70l-0.22,0.04l3.56,3.48l0.22,2.15
		l-0.67-1.52c0,0,0,0-0.37,0c1.41,3.15,2,5.93,2,5.93h-1.74l-0.85-1.52l-0.19-1.15l-0.19,0.07c0,0,0,0,0.04,0.85
		c-0.41-0.63-1.15-1.44-1.15-1.44l-0.3-1.52l-0.15,0.04c0,0,0,0,0.15,1.26c-0.22-0.41-1.52-1.37-1.52-1.37s0.04-0.07-0.26,0.07
		c3.26,2.37,3.78,4.78,3.78,4.78l-4.76-0.13c0,0,0,0-0.02,0.41c4.85,0.33,7.39,0.8,7.39,0.8s0,0,2.35,2.76
		c0.93,1.52,1.04,4.33,1.04,4.33l-2-0.09l-1.02-1.15l-0.59-1.67l-0.24-0.11c0,0,0,0,0.15,1.2c-0.85-0.89-2.98-2.26-2.98-2.26
		l-0.17-0.69l-0.19,0.04l0.11,0.56l-2.13-1.26l-0.28-0.41v0.35l-1.33,0.06c0,0,0,0,1.22,0.22c4.17,2.11,6.06,4.22,6.61,5
		c-0.83-0.17-1-0.39-1.78-0.67c-4.22-0.44-4.67-1.22-4.67-1.22l0.33,1.61l1.02,0.31l-0.41,0.74l0.74-0.63c0,0,0.63-0.19,2.11-0.04
		c0.96,0.07,1.19,0.33,2.7,1.07c-2.33,2.41-3.96,2.41-4.48,2.59c2.37,0,4.81-2.48,4.81-2.48s1.04,0.37,3.26,0.59
		c4.52,2.06,6.49,3.97,8.01,6.22c-0.58-0.01-2.6-0.54-3.95-0.87c-0.5-0.78-0.43-0.57-0.43-0.57l0.22,0.56c0,0-1.07-0.15-2.22-0.5
		c-1.15-0.35-1.56-0.44-1.56-0.44l0.26,0.28l2.15,0.74l3.37,0.78l2.46,0.51c0.64,1.01,1.22,2.1,1.91,3.3
		c1.19,6.89-0.93,8-3.04,10.11c-7.44-1.44-10.89-3.22-17.56-9.67c-15.56-17.33-4.89-39.33-4.89-39.33
		c-6.17,8.98-7.07,17.48-5.7,24.7c0.92,5.79,3.52,14,10.74,20.27c0.02,0.01,0.03,0.02,0.05,0.03c0.14,0.15,0.27,0.29,0.39,0.42
		c5.33,5.3,15,8.15,15,8.15s0,0-0.07,0.3c-10.33,1.07-12.78,2.33-20.41,4.81c14.7-3.56,20.78-3.75,21.94-3.72s1.14,0.19,0.83,0.69
		c-2.5,4.36-11.72,5.83-12.17,5.97c0.08,0.17,2.03,0.22,5.11-0.03c-0.5,1.33-3.11,2.44-3.56,2.58c-0.44,0.14,0.03,0.36,0.17,0.36
		c0.14,0,1.97-0.61,1.97-0.61l0.72,0.44l0.64-0.06l0.11-1.11l2.89-2.44c0,0,0,0,1.14-1.06c1.06-0.97,0.72,0.64,0.72,0.64
		s0,0-0.33,1.64c-0.69,2.69-3.22,5-3.22,5h1.14c0,0,0,0,0.53-0.58c0.47-0.78,0.97-0.42,0.97-0.42l1.28,1.11h0.44l-0.06-1.83
		c0,0,0,0-0.08-1.39c0.08-0.86,0.36-2.06,1.36-3.36c1.44-1.78,2.11-1.47,2.42-1.36c-0.19,3.78-1.97,5.33-1.97,5.33l0.06,0.36
		l0.83-0.39c0,0,1.78-1.14,2.06-1.03c0.08,2.42-0.28,4.06-0.28,4.06l-0.03,0.94l0.36,0.17c0,0,0,0,0.31-0.08
		c1.06-1.42,1.47-5.06,1.47-5.06s0,0,0.14-2.14c0.05-1.7,0.76-1.82,0.93-1.83c0.5,0.09,0.65,0.7,0.65,1.46
		c0,3.78,1.11,7.39,1.11,7.39s0,0,0.5,0.44c1.28,0.56,0.94-0.39,0.94-0.39s0,0-0.11-0.83c-0.33-1.5-0.33-4.39-0.33-4.39l2.39,1.56
		c0,0,0,0,0.61-0.17c-2-2.22-1.78-4.94-1.78-4.94s0,0,0.11-0.5c3.89,1.39,3.61,5.28,3.61,5.28s-0.33,2.33-0.28,2.56s0.78,0,0.78,0
		s0,0,0.33-0.56c0.33-0.56,1-0.17,1-0.17s1.67,0.78,2.33,0.61c-2.5-1.67-3.39-4.83-3.67-6.06c-0.17-2.06,0.78-1.11,0.78-1.11
		l3.61,3.06l0.22,1.5l0.61,0.61c0,0,0,0,0.06-0.39c0.44-1.17,3.06-0.06,3.06-0.06l-2.39-1.72l-1-0.89l1.78-0.17c0,0,0,0,2.94,0.06
		c-4.5-0.94-8.28-2.78-8.28-2.78s0,0-3.17-2.39c-1-1.06-0.61-1.31,0.13-1.46c7.78,0.37,19.63,3.04,22.19,3.56
		c-7.33-3.3-19.43-4.56-19.84-4.59s-0.64-0.3-0.27-0.52C110.48,108.67,114.93,93.7,116.19,89.04z"/>
	<path class="st2" d="M72.48,75.63c0,0,1.52-0.44,0.96-2.11c-0.44-1.3-0.56-1.89-0.56-1.89s-1.33,0.48-1.7,2.67
		C71.07,75,71.56,75.74,72.48,75.63z"/>
	<path class="st3" d="M77.44,75c0,0,1.04-0.37,0.26-1.44c-0.43-0.64-2.26-0.93-2.41-0.96C75.48,73.3,75.91,75.57,77.44,75z"/>
	<path class="st3" d="M75.72,69.42c0,0,1.89,1.08,2.19,2.31c0.11,0.56-0.11,1.17-0.69,1.06C76.75,72.67,75.39,72.64,75.72,69.42z"/>
	<path class="st2" d="M71.74,70.37c0,0-0.7-1.56,3.04-1.59c0.3,0,0.3,0,0.3,0S73.67,72.33,71.74,70.37z"/>
	<path class="st2" d="M69.04,70.04c0,0,2.37-0.33,0.63-2.59c-1.81-2.15-1.81-2.15-1.81-2.15S65.93,70.63,69.04,70.04z"/>
	<path class="st2" d="M62.43,69.17c0,0,2.27,0.14,1.33-2.32c-1.15-2.57-1.15-2.57-1.15-2.57S59.06,68.81,62.43,69.17z"/>
	<path class="st3" d="M66.15,63.22c0,0-0.15,1.67,0.33,2.63c0.22,0.41,0.48,1.74-0.7,1.89C65.26,67.7,62.48,66.56,66.15,63.22z"/>
	<path class="st2" d="M64.44,71.22c0,0,0.93,1.48,1.85,2.44c0.22,0.37,0.67,1.44-0.67,1.59C65.07,75.3,62.93,74.59,64.44,71.22z"/>
	<path class="st3" d="M64.7,67.85l0.11,2.19c0,0,0.11,0.56-0.56,0.59c-0.48-0.04-1.19-0.48-0.48-1.44
		C64.37,68.37,64.7,67.85,64.7,67.85z"/>
	<path class="st2" d="M59.11,73.26c0,0,1.07,0.19,1.11,1.7c-0.15,0.41-0.37,1.07-1.04,0.48C58.52,74.85,59.11,73.26,59.11,73.26z"/>
	<path class="st3" d="M65.96,69.76c0,0,3.3,0.41,3.15,2.06c-0.13,0.59-0.54,0.98-1.35,0.72C67.15,72.24,66.22,71.57,65.96,69.76z"/>
	<path class="st2" d="M73.19,61.19c0,0,1.56,2.47,0.42,4.14c-0.31,0.5-1.31,0.92-1.86,0.47c-0.25-0.22-1.42-1.25,0.31-2.92
		C72.78,62.14,73,61.94,73.19,61.19z"/>
	<path class="st3" d="M68.89,62.75c0,0,1.97,0.89,1.81,2.72c-0.08,0.53-0.36,1.03-1.17,0.89C68.97,66.28,68.19,66,68.89,62.75z"/>
	<path class="st3" d="M75.61,66c0,0-2.69-0.33-3.08,1.39c-0.06,0.44,0.08,1.33,1.44,0.94C74.75,68.06,75.11,67.33,75.61,66z"/>
	<path class="st3" d="M61.06,74.5c0,0,1.06,0.78,1.13,2.22c0,0.39-0.22,1.04-1.11,0.69C60.76,77.26,60.02,76.5,61.06,74.5z"/>
	<path class="st3" d="M57.8,73.87c0,0,1.07,0.85,0.67,1.5C58.28,75.63,57.54,76.13,57.8,73.87z"/>
	<polygon class="st1" points="58.85,76.69 60.04,76.94 60.28,77.19 58.8,76.81 	"/>
	<path class="st3" d="M57.04,76.34c0,0,0.73-0.55,1.69-0.16c0.61,0.35,0.5,0.99-0.09,1.03C58.03,77.24,57.04,76.34,57.04,76.34z"/>
	<path class="st2" d="M71.11,83.44c0,0,3.03-1.03,3,0.86C74.03,84.89,73.47,86.36,71.11,83.44z"/>
	<path class="st3" d="M69.97,85.92c0,0,2.08,0.97,1.56,2.17C71.14,88.58,69.94,89.03,69.97,85.92z"/>
	<path class="st3" d="M72.34,84.89c0,0,1.74,1.84,0.96,2.94c-0.38,0.42-1.13,0.71-1.48-0.08S71.64,85.94,72.34,84.89z"/>
	<path class="st3" d="M59.33,80.94c0,0,2.81,0.69,2.06,2.31C61.11,83.72,59.78,84.81,59.33,80.94z"/>
	<path class="st3" d="M57.39,80.74c0,0,1.83,0.28,1.56,1.42C58.75,82.69,57.61,83.55,57.39,80.74z"/>
	<path class="st2" d="M64.81,93.5c0,0,4.5-1.78,4.28,0.97C69.03,94.92,67.97,97.25,64.81,93.5z"/>
	<path class="st3" d="M69.16,92.16c0,0,4.14,0.03,3.89,2.11C72.91,94.77,71.85,96.55,69.16,92.16z"/>
	<path class="st3" d="M81.44,88.98c0,0,0.58,0.7,0.24,1.68c-0.32,0.63-0.97,0.55-1.03-0.05C80.58,90.02,81.44,88.98,81.44,88.98z"/>
	<path class="st2" d="M79.8,85.99c0,0,2.46,2.05,0.83,3.01C80.09,89.23,78.55,89.53,79.8,85.99z"/>
	<path class="st3" d="M80.81,82.2c0,0,2.13,1.37,1.64,2.63c-0.27,0.5-0.93,0.96-1.46,0.27C80.45,84.41,80.38,83.38,80.81,82.2z"/>
	<path class="st2" d="M82.7,77.45c0,0,0.01,2.96-1.84,2.58C80.5,79.87,79.28,78.82,82.7,77.45z"/>
	<path class="st3" d="M81.41,74.77c0,0,0.31,1.61,1.24,1.64C83.18,76.33,84.48,75.84,81.41,74.77z"/>
	<path class="st2" d="M84.01,74.02c0,0,1.02-1.21-0.37-2.29c-1.09-0.83-1.51-1.26-1.51-1.26s-0.84,1.14,0.07,3.16
		C82.49,74.28,83.3,74.62,84.01,74.02z"/>
	<path class="st3" d="M86.97,72.34c0,0,0.98,3.75-0.91,3.9C85.53,76.24,83.21,76.14,86.97,72.34z"/>
	<path class="st2" d="M87.61,78.6c0,0,2.94,0.28,2.39,2.08C89.81,81.01,88.64,82.12,87.61,78.6z"/>
	<path class="st1" d="M86.44,83.89c0,0-1.96,1.67-2.22,3.81c0.07,0.96,0.07,0.96,0.07,0.96s-0.11-2.11,2.3-2.81
		c-0.07-0.19-0.07-0.19-0.07-0.19s-0.65,0-1.56,0.74c0.2-0.43,1.06-1.74,1.65-2.35C86.93,83.56,86.44,83.89,86.44,83.89z"/>
	<path class="st2" d="M88.39,81.86c0,0-0.1,3.38-1.96,2.66C85.88,84.23,84.63,83.13,88.39,81.86z"/>
	<path class="st3" d="M88.85,85.18c0,0-1.28,1.77-2.33,1.28c-0.42-0.25-0.78-0.84-0.16-1.27C86.97,84.77,87.85,84.76,88.85,85.18z"
		/>
	<path class="st3" d="M80.1,66.97c0,0,0.81,0.41,0.89,1.44c-0.04,0.7-0.67,0.89-0.96,0.37C79.73,68.27,80.1,66.97,80.1,66.97z"/>
	<path class="st3" d="M79.19,61.11c0,0-2.8,2.68-1.27,3.8C78.37,65.18,80.4,66.32,79.19,61.11z"/>
	<path class="st2" d="M77.73,66.9c0,0-1.24,0.76-1.67-2.39c-0.03-0.25-0.03-0.25-0.03-0.25S79.18,65.06,77.73,66.9z"/>
	<path class="st3" d="M77.19,60.49c0,0-2.16,0.14-2.65,1.91c-0.11,0.52-0.02,1.09,0.78,1.24C75.87,63.76,76.69,63.77,77.19,60.49z"
		/>
	<path class="st2" d="M80.74,63.73c0,0-1.82-0.51,0.44-3.5C81.36,60,81.36,60,81.36,60S83.66,63.56,80.74,63.73z"/>
	<path class="st3" d="M88.51,61.98c0,0-1.87,0.5-2.73,1.4c-0.35,0.4-1.7,1.21-2.33-0.02C83.29,62.79,83.43,59.3,88.51,61.98z"/>
	<path class="st2" d="M81.64,65.46c0,0,3.96-0.41,3.9,2.21C85.4,68.53,83.08,70.49,81.64,65.46z"/>
	<path class="st3" d="M82.87,69.29c0,0,2.06-0.72,2.65,0.29c0.2,0.45,0.15,1.14-0.59,1.13C84.18,70.7,83.44,70.21,82.87,69.29z"/>
	<path class="st3" d="M85.14,65.24c0,0,1.2-0.48,2.41,0.42c0.74,0.71,0.37,1.55-0.47,1.38C86.23,66.86,85.14,65.24,85.14,65.24z"/>
	<path class="st3" d="M87.52,63.02c0,0-0.92,1.46-0.03,2.48c0.28,0.28,0.68,0.45,1.15-0.01C88.97,65.18,89.37,64.64,87.52,63.02z"/>
	<path class="st2" d="M91.23,60.27c0,0,1.56,2.47,0.42,4.14c-0.31,0.5-1.31,0.92-1.86,0.47c-0.25-0.22-1.42-1.25,0.31-2.92
		C90.81,61.21,91.03,61.02,91.23,60.27z"/>
	<path class="st2" d="M95.15,61.8c0,0-2.8,0.82-3.05,2.83c-0.1,0.58,0.37,1.55,1.08,1.59c0.33,0,1.89,0,1.7-2.39
		C94.84,62.78,94.8,62.49,95.15,61.8z"/>
	<path class="st3" d="M91.17,65.04c0,0,0.97,0.41,1.06,1.44c-0.04,0.7-0.79,0.89-1.14,0.37S91.17,65.04,91.17,65.04z"/>
	<path class="st3" d="M90.37,67.38c0,0-0.42,1.07,0.31,1.88c0.57,0.47,1.28,0,1.14-0.65C91.69,67.96,90.37,67.38,90.37,67.38z"/>
	<path class="st2" d="M89.86,70.27c0,0,2.8,0.94,1.85,2.57C91.45,73.12,90.06,73.94,89.86,70.27z"/>
	<path class="st3" d="M94.92,66.41c0,0-1.15-0.06-1.69,0.89c-0.26,0.69,0.4,1.21,0.98,0.88C94.79,67.85,94.92,66.41,94.92,66.41z"/>
	<path class="st3" d="M95.29,67.95c0,0,0.58,1.6-0.47,2.69c-0.83,0.61-1.83-0.16-1.63-1.09C93.39,68.61,95.29,67.95,95.29,67.95z"/>
	<path class="st3" d="M96,62.57c0,0,1.89,0.35,2.47,2.18c0.21,1.29-1.05,1.92-1.88,1.13C95.74,65.09,96,62.57,96,62.57z"/>
	<path class="st2" d="M95.31,66.55c0,0,2.23-0.53,2.27,0.93C97.52,67.78,96.94,68.89,95.31,66.55z"/>
	<path class="st2" d="M97.15,71.08c0,0,2.6,3,0.43,4.47C96.8,75.92,93.86,75.14,97.15,71.08z"/>
	<path class="st3" d="M94.11,74c0,0,1.58,0.64,1.68,2.16c-0.1,1.02-1.35,1.25-1.91,0.48C93.32,75.86,94.11,74,94.11,74z"/>
	<path class="st3" d="M98.16,75.83c0,0,1.58,0.64,1.68,2.16c-0.1,1.02-1.35,1.25-1.91,0.48C97.38,77.7,98.16,75.83,98.16,75.83z"/>
	<path class="st3" d="M98.81,70.99c0,0,1.89,1.08,2.19,2.31c0.11,0.56-0.11,1.17-0.69,1.06C99.84,74.24,98.48,74.21,98.81,70.99z"/>
	<path class="st3" d="M94.9,78.34c0,0-0.02,2.18-1.16,2.39c-0.49,0.04-1.12-0.24-0.87-0.94C93.13,79.09,93.85,78.57,94.9,78.34z"/>
	<path class="st2" d="M98.56,79.25c0,0-0.21,2.95-2.02,2.44C96.2,81.5,95.06,80.37,98.56,79.25z"/>
	<path class="st2" d="M95.48,83.32c0,0-2.52,1.54-1.23,2.92C94.57,86.45,96.11,86.94,95.48,83.32z"/>
	<path class="st3" d="M96.29,90.32c0,0-1.67,0.33-2.06,1.8c-0.09,1.02,1.09,1.48,1.78,0.83C96.71,92.29,96.29,90.32,96.29,90.32z"/>
	<path class="st2" d="M98.6,87.91c0,0-2.52,1.54-1.23,2.92C97.69,91.05,99.22,91.53,98.6,87.91z"/>
	<path class="st2" d="M100.83,92.16c0,0-1.46,2.57-2.88,1.33C97.73,93.17,97.19,91.65,100.83,92.16z"/>
	<path class="st3" d="M105.34,88.7c0,0-2.88-1.8-4.79-0.45c-0.58,0.36-1.05,1.54-0.53,2.18c0.26,0.29,1.46,1.65,3.37-0.39
		C104.25,89.2,104.48,88.93,105.34,88.7z"/>
	<path class="st3" d="M102.98,84.49c0,0-0.05,1.42-1.2,1.94c-0.83,0.21-1.37-0.7-0.93-1.36C101.29,84.41,102.98,84.49,102.98,84.49z
		"/>
	<path class="st2" d="M107.28,84.22c0,0-2.76,2.03-3.78-0.07C103.38,83.7,103.46,81.77,107.28,84.22z"/>
	<path class="st2" d="M109.2,77.44c0,0-1.25,2.68-2.77,1.55C106.18,78.69,105.53,77.22,109.2,77.44z"/>
	<path class="st3" d="M106.99,70.78c0,0-2.83,2.65-1.32,3.78C106.13,74.85,108.15,76,106.99,70.78z"/>
	<path class="st2" d="M102.82,72.66c0,0,1.4,1.39,2.92-3.02c0.12-0.35,0.12-0.35,0.12-0.35S101.46,69.67,102.82,72.66z"/>
	<path class="st3" d="M103.74,66.72c0,0,0.25,2.16-0.86,2.52c-0.48,0.1-1.14-0.1-0.98-0.82C102.08,67.69,102.72,67.08,103.74,66.72z
		"/>
	<path class="st3" d="M104.38,65.07c0,0,2.08,1.56,1.82,2.98c-0.16,0.57-0.68,1.07-1.24,0.3S104.18,66.41,104.38,65.07z"/>
	<path class="st1" d="M98.33,43.78l5.11-12c0,0-51.78-22.44-78.67,32.89c-4,9.11-14.44,46.22,22.22,73.56
		c8.67,5.78,30.22,14.67,56.44,4.22c-5.11-11.11-5.11-11.11-5.11-11.11s-27.78,16.22-55.56-5.56C33.67,118.22,17.22,94,29.89,68
		C33.67,60,49.22,29.11,98.33,43.78z"/>
	<path class="st4" d="M142.22,64.11l0.89-4.11h-19.89v37.89h20.11v-4.22h-16V75.78c0,0,3.37,0.81,6.48-0.67
		c1.41-0.59,4.15-1.26,6.74,0.22c-0.07-3.93,0-3.93,0-3.93s-2.59-1.85-7.04-0.3c-1.7,0.67-3.11,1.48-6.15,0.81c-0.07-6,0-7.7,0-7.7
		L142.22,64.11z"/>
	<path class="st4" d="M144.63,59.93h4.15v25.19c0,0,0.81,8.59,8.52,8.59c3.7-0.07,8.67-2.07,8.67-8.44c0-6.96,0-25.41,0-25.41h4.07
		v25.33c0,0-0.67,12.22-12.44,12.81c-1.85-0.07-10.89-1.04-12.81-10.89C144.56,78.96,144.63,59.93,144.63,59.93z"/>
	<path class="st4" d="M185.67,86.44c7.7-3.78,7.56-9.33,7.7-13.56c0.37-11.7-10.74-13.11-10.74-13.11h-11.26v38.15l4.3,0.07V87.11
		h5.56l8.44,10.74h5.26C194.93,97.85,194.93,97.85,185.67,86.44z M175.59,83.11L175.52,64h6.59c0,0,7.33,0.96,7.19,9.56
		c-0.15,4.3-1.41,8.52-7.04,9.56C178.63,83.19,175.59,83.11,175.59,83.11z"/>
	<path class="st4" d="M217.67,60.15c-5.48-0.15-9.26-0.22-9.26-0.22v37.93h8.96c0,0,16.59-1.7,16.15-18.96
		C233.44,75.7,232.26,62.22,217.67,60.15z M217.52,93.85c-5.04-0.07-5.04-0.07-5.04-0.07l-0.15-29.7h3.93
		c0,0,12.52,0.44,13.11,14.67C229.07,84.52,227.74,91.26,217.52,93.85z"/>
	<path class="st1" d="M253.5,64.13l0.89-4.11H234.5v37.89h20.11v-4.22h-16V75.8c0,0,3.37,0.81,6.48-0.67
		c1.41-0.59,4.15-1.26,6.74,0.22c-0.07-3.93,0-3.93,0-3.93s-2.59-1.85-7.04-0.3c-1.7,0.67-3.11,1.48-6.15,0.81c-0.07-6,0-7.7,0-7.7
		L253.5,64.13z"/>
	<path class="st1" d="M284.67,59.89H280v31.78c0,0,0.39,6.33-6.11,9.5c2.22,4.28,2.22,4.28,2.22,4.28s8.44-4,8.56-13.56
		C284.67,82.11,284.67,59.89,284.67,59.89z"/>
	<path class="st1" d="M300.78,59.78L284.41,98h5.04c0,0,0.59-1.56,1.41-3.41c4.52,0.3,7.7-0.89,9.63-2.59
		c4.15-3.63,7.78-3.19,7.78-3.19l4.07,9.11h4.89L300.78,59.78z M298.26,89.11c-1.04,0.89-2.81,2-5.85,1.33l8.52-19.7l6,14.3
		C306.93,85.04,302.33,84.81,298.26,89.11z"/>
	<path class="st1" d="M332.56,86.37c7.7-3.78,7.56-9.33,7.7-13.56c0.37-11.7-10.74-13.11-10.74-13.11h-11.26v38.15l4.3,0.07V87.04
		h5.56l8.44,10.74h5.26C341.81,97.78,341.81,97.78,332.56,86.37z M322.48,83.04l-0.07-19.11H329c0,0,7.33,0.96,7.19,9.56
		c-0.15,4.3-1.41,8.52-7.04,9.56C325.52,83.11,322.48,83.04,322.48,83.04z"/>
	<path class="st1" d="M352.3,60.37c-5.48-0.15-9.26-0.22-9.26-0.22v37.93H352c0,0,16.59-1.7,16.15-18.96
		C368.07,75.93,366.89,62.44,352.3,60.37z M352.15,94.07C347.11,94,347.11,94,347.11,94l-0.15-29.7h3.93c0,0,12.52,0.44,13.11,14.67
		C363.7,84.74,362.37,91.48,352.15,94.07z"/>
	<polygon class="st1" points="366.85,59.7 366.85,64.22 370.48,64.22 370.48,93.7 367.96,93.7 366.7,97.85 378.48,97.85 
		378.48,93.7 375,93.7 375,64.07 377.59,64.07 378.85,59.7 	"/>
	<polygon class="st1" points="379.59,97.93 379.59,59.78 403,86 403,59.85 407.74,59.85 407.74,98 384.19,72.22 384.19,98 	"/>
	<path class="st1" d="M282,60.63c0,0-0.26-2.26-2.22-3.48c-0.07-0.41-0.07-0.41-0.07-0.41l1.41,1.3c0,0-0.96-2.48-1.11-4
		c-0.22-1.59-0.22-1.59-0.22-1.59l-0.04-0.7L280,52c0,0,0.22,3.37,1.15,5.19c0.52,1.26,1.11,2.59,1.3,3.22
		c0.19,0.63,0.19-0.56,0.19-0.56s-0.04-1.78,0.19-4c0.22-2.26,0.44-3.67-0.04-5.96c0.19-0.85,0.19-0.85,0.19-0.85l0.11,1.11
		c0,0,0.56,1.52,0.07,6.04c1.63-1.41,1.63-1.41,1.63-1.41l0.11,0.44l-1.78,1.89c0,0-0.07,2.26,0.15,3.44
		c0.22,1.19-1.44,1.67-1.44,1.67L282,60.63z"/>
	<path class="st2" d="M275.13,45.68c0,0,4.83,0.82,5.65,4.1c0.28,0.94-0.31,2.66-1.49,2.86c-0.56,0.06-3.15,0.38-3.31-3.64
		C275.85,47.26,275.85,46.76,275.13,45.68z"/>
	<path class="st3" d="M283.11,42.38c0,0-3.49,3.44-2.28,6.6c0.31,0.93,1.78,2,2.86,1.49c0.49-0.27,2.8-1.49,0.63-4.88
		C283.42,44.08,283.13,43.68,283.11,42.38z"/>
	<path class="st3" d="M275.74,53.72c0,0,0.37,3.14,2.46,3.78c0.6,0.21,1.73-0.11,1.89-0.87c0.06-0.36,0.35-2.02-2.24-2.25
		C276.73,54.23,276.41,54.22,275.74,53.72z"/>
	<path class="st2" d="M290.26,47.04c0,0,1.26,5.7-2,8.06c-0.91,0.73-3.07,0.85-3.82-0.36c-0.32-0.59-1.82-3.3,2.54-5.28
		C288.84,48.54,289.39,48.32,290.26,47.04z"/>
	<polygon class="st1" points="71.51,95.43 70.04,95.97 70.06,95.76 71.28,95.32 	"/>
	<polygon class="st1" points="74.99,96.11 73.71,96.79 73.93,96.89 75.56,96.25 	"/>
	<path class="st3" d="M67.06,97.14c0,0,1.39-2.92,3.17-1.47C70.56,95.94,72.22,97.17,67.06,97.14z"/>
	<path class="st2" d="M70.5,98c0,0,2.11-3.11,3.53-1.33C74.61,97.42,74.39,99.03,70.5,98z"/>
	<polygon class="st1" points="63.85,90.63 63.78,91.33 63.93,91.35 64.09,90.33 	"/>
	<path class="st3" d="M64.33,91.39c0,0-1.47-0.61-1.58,0.97c0.06,0.83,0.78,1.94,0.78,1.94S65.78,92.47,64.33,91.39z"/>
	<polygon class="st1" points="61.69,85.83 63.11,85.87 63.22,86.09 61.48,85.96 	"/>
	<path class="st3" d="M58.67,84.86c0,0,3.36-0.56,3.17,1.03C61.72,86.53,60.92,87.47,58.67,84.86z"/>
	<polygon class="st1" points="60.3,79.3 61.19,80.3 60.91,80.28 60.13,79.28 	"/>
	<path class="st2" d="M56.86,77.53c0,0,3.81-0.47,3.67,1.61c-0.06,0.5-0.86,1.22-1.89,0.61C57.61,78.94,56.86,77.53,56.86,77.53z"/>
	<polygon class="st1" points="66.07,77.43 66.78,77.7 66.89,78.06 65.8,77.48 	"/>
	<polygon class="st1" points="66.76,79.94 67.37,80.46 67.3,80.74 66.59,80.06 	"/>
	<polygon class="st1" points="67.63,77.17 67.3,78.31 67.33,78.5 67.74,77.24 	"/>
	<polygon class="st1" points="68.37,79.06 67.44,79.87 67.43,80.15 68.57,79.15 	"/>
	<path class="st3" d="M67.83,74.83c0,0,1.17,0.86,0.72,2.03c-0.19,0.42-0.33,0.67-1.03,0.53C67.17,77.25,66.31,76.33,67.83,74.83z"
		/>
	<path class="st2" d="M63.97,75.89c0,0,2.17-0.06,2.22,1.33C66.17,77.75,65.61,79.14,63.97,75.89z"/>
	<path class="st2" d="M64.57,78.08c0,0,2.94,0.28,2.39,2.08C66.77,80.5,65.6,81.61,64.57,78.08z"/>
	<path class="st2" d="M69.78,76.81c0,0-3,1-1.92,2.36C68.47,79.81,70.31,80.42,69.78,76.81z"/>
	<path class="st1" d="M71.72,82.09c0,0,1.59-0.06,1.87,0.07c0.26,0.22,0.26,0.22,0.26,0.22s-1.5-0.22-2.07-0.13
		c-0.46,0.06-0.31-0.15-0.31-0.15L71.72,82.09z"/>
	<path class="st1" d="M74.37,81.8c0,0-0.04,1.3,0.02,1.33c0.06,0.04-0.2-0.31-0.2-0.31v-0.91L74.37,81.8z"/>
	<path class="st2" d="M71.03,77.9c0,0,3.17,0.97,2.28,2.97C72.92,81.48,70.5,82.23,71.03,77.9z"/>
	<path class="st3" d="M67.9,81.63c0,0,3.53-1.61,4,0.22C71.98,82.38,72.29,84.69,67.9,81.63z"/>
	<path class="st3" d="M73.94,79.83c0,0-0.78,1.44-0.08,2.06C74.33,82.17,75.64,82.61,73.94,79.83z"/>
	<polygon class="st1" points="60.36,71.56 60.76,71.17 60.86,71.25 60.32,71.71 	"/>
	<polygon class="st1" points="61.53,71.14 61.57,71.9 61.72,72.03 61.65,71.01 	"/>
	<path class="st3" d="M61.22,69.11c0,0,0.81,0.41,0.89,1.44c-0.04,0.7-0.67,0.89-0.96,0.37S61.22,69.11,61.22,69.11z"/>
	<path class="st3" d="M60.59,72.11c0,0,0.11-0.89-0.78-0.81c-0.93,0.22-1.37,1.48-1.37,1.48S60.33,73.52,60.59,72.11z"/>
</g>
</svg>
